G04 #@! TF.GenerationSoftware,KiCad,Pcbnew,5.1.2-f72e74a~84~ubuntu19.04.1*
G04 #@! TF.CreationDate,2019-06-05T10:31:07+02:00*
G04 #@! TF.ProjectId,efr32_feather,65667233-325f-4666-9561-746865722e6b,0.1*
G04 #@! TF.SameCoordinates,Original*
G04 #@! TF.FileFunction,Legend,Top*
G04 #@! TF.FilePolarity,Positive*
%FSLAX46Y46*%
G04 Gerber Fmt 4.6, Leading zero omitted, Abs format (unit mm)*
G04 Created by KiCad (PCBNEW 5.1.2-f72e74a~84~ubuntu19.04.1) date 2019-06-05 10:31:07*
%MOMM*%
%LPD*%
G04 APERTURE LIST*
%ADD10C,0.150000*%
%ADD11C,0.100000*%
%ADD12C,0.120000*%
G04 APERTURE END LIST*
D10*
X147868095Y-134242380D02*
X147868095Y-133575714D01*
X147868095Y-133766190D02*
X147915714Y-133670952D01*
X147963333Y-133623333D01*
X148058571Y-133575714D01*
X148153809Y-133575714D01*
X148677619Y-133242380D02*
X148772857Y-133242380D01*
X148868095Y-133290000D01*
X148915714Y-133337619D01*
X148963333Y-133432857D01*
X149010952Y-133623333D01*
X149010952Y-133861428D01*
X148963333Y-134051904D01*
X148915714Y-134147142D01*
X148868095Y-134194761D01*
X148772857Y-134242380D01*
X148677619Y-134242380D01*
X148582380Y-134194761D01*
X148534761Y-134147142D01*
X148487142Y-134051904D01*
X148439523Y-133861428D01*
X148439523Y-133623333D01*
X148487142Y-133432857D01*
X148534761Y-133337619D01*
X148582380Y-133290000D01*
X148677619Y-133242380D01*
X149439523Y-134147142D02*
X149487142Y-134194761D01*
X149439523Y-134242380D01*
X149391904Y-134194761D01*
X149439523Y-134147142D01*
X149439523Y-134242380D01*
X150439523Y-134242380D02*
X149868095Y-134242380D01*
X150153809Y-134242380D02*
X150153809Y-133242380D01*
X150058571Y-133385238D01*
X149963333Y-133480476D01*
X149868095Y-133528095D01*
X152352380Y-148882380D02*
X152019047Y-148406190D01*
X151780952Y-148882380D02*
X151780952Y-147882380D01*
X152161904Y-147882380D01*
X152257142Y-147930000D01*
X152304761Y-147977619D01*
X152352380Y-148072857D01*
X152352380Y-148215714D01*
X152304761Y-148310952D01*
X152257142Y-148358571D01*
X152161904Y-148406190D01*
X151780952Y-148406190D01*
X152733333Y-148834761D02*
X152876190Y-148882380D01*
X153114285Y-148882380D01*
X153209523Y-148834761D01*
X153257142Y-148787142D01*
X153304761Y-148691904D01*
X153304761Y-148596666D01*
X153257142Y-148501428D01*
X153209523Y-148453809D01*
X153114285Y-148406190D01*
X152923809Y-148358571D01*
X152828571Y-148310952D01*
X152780952Y-148263333D01*
X152733333Y-148168095D01*
X152733333Y-148072857D01*
X152780952Y-147977619D01*
X152828571Y-147930000D01*
X152923809Y-147882380D01*
X153161904Y-147882380D01*
X153304761Y-147930000D01*
X153590476Y-147882380D02*
X154161904Y-147882380D01*
X153876190Y-148882380D02*
X153876190Y-147882380D01*
X154533809Y-147912380D02*
X155152857Y-147912380D01*
X154819523Y-148293333D01*
X154962380Y-148293333D01*
X155057619Y-148340952D01*
X155105238Y-148388571D01*
X155152857Y-148483809D01*
X155152857Y-148721904D01*
X155105238Y-148817142D01*
X155057619Y-148864761D01*
X154962380Y-148912380D01*
X154676666Y-148912380D01*
X154581428Y-148864761D01*
X154533809Y-148817142D01*
X155581428Y-148817142D02*
X155629047Y-148864761D01*
X155581428Y-148912380D01*
X155533809Y-148864761D01*
X155581428Y-148817142D01*
X155581428Y-148912380D01*
X155962380Y-147912380D02*
X156581428Y-147912380D01*
X156248095Y-148293333D01*
X156390952Y-148293333D01*
X156486190Y-148340952D01*
X156533809Y-148388571D01*
X156581428Y-148483809D01*
X156581428Y-148721904D01*
X156533809Y-148817142D01*
X156486190Y-148864761D01*
X156390952Y-148912380D01*
X156105238Y-148912380D01*
X156010000Y-148864761D01*
X155962380Y-148817142D01*
X156867142Y-147912380D02*
X157200476Y-148912380D01*
X157533809Y-147912380D01*
X159958095Y-147760000D02*
X159862857Y-147712380D01*
X159720000Y-147712380D01*
X159577142Y-147760000D01*
X159481904Y-147855238D01*
X159434285Y-147950476D01*
X159386666Y-148140952D01*
X159386666Y-148283809D01*
X159434285Y-148474285D01*
X159481904Y-148569523D01*
X159577142Y-148664761D01*
X159720000Y-148712380D01*
X159815238Y-148712380D01*
X159958095Y-148664761D01*
X160005714Y-148617142D01*
X160005714Y-148283809D01*
X159815238Y-148283809D01*
X160434285Y-148712380D02*
X160434285Y-147712380D01*
X161005714Y-148712380D01*
X161005714Y-147712380D01*
X161481904Y-148712380D02*
X161481904Y-147712380D01*
X161720000Y-147712380D01*
X161862857Y-147760000D01*
X161958095Y-147855238D01*
X162005714Y-147950476D01*
X162053333Y-148140952D01*
X162053333Y-148283809D01*
X162005714Y-148474285D01*
X161958095Y-148569523D01*
X161862857Y-148664761D01*
X161720000Y-148712380D01*
X161481904Y-148712380D01*
X163456666Y-148864285D02*
X163456666Y-148388095D01*
X163742380Y-148959523D02*
X162742380Y-148626190D01*
X163742380Y-148292857D01*
X162742380Y-147769047D02*
X162742380Y-147673809D01*
X162790000Y-147578571D01*
X162837619Y-147530952D01*
X162932857Y-147483333D01*
X163123333Y-147435714D01*
X163361428Y-147435714D01*
X163551904Y-147483333D01*
X163647142Y-147530952D01*
X163694761Y-147578571D01*
X163742380Y-147673809D01*
X163742380Y-147769047D01*
X163694761Y-147864285D01*
X163647142Y-147911904D01*
X163551904Y-147959523D01*
X163361428Y-148007142D01*
X163123333Y-148007142D01*
X162932857Y-147959523D01*
X162837619Y-147911904D01*
X162790000Y-147864285D01*
X162742380Y-147769047D01*
X165916666Y-148834285D02*
X165916666Y-148358095D01*
X166202380Y-148929523D02*
X165202380Y-148596190D01*
X166202380Y-148262857D01*
X166202380Y-147405714D02*
X166202380Y-147977142D01*
X166202380Y-147691428D02*
X165202380Y-147691428D01*
X165345238Y-147786666D01*
X165440476Y-147881904D01*
X165488095Y-147977142D01*
X168486666Y-148864285D02*
X168486666Y-148388095D01*
X168772380Y-148959523D02*
X167772380Y-148626190D01*
X168772380Y-148292857D01*
X167867619Y-148007142D02*
X167820000Y-147959523D01*
X167772380Y-147864285D01*
X167772380Y-147626190D01*
X167820000Y-147530952D01*
X167867619Y-147483333D01*
X167962857Y-147435714D01*
X168058095Y-147435714D01*
X168200952Y-147483333D01*
X168772380Y-148054761D01*
X168772380Y-147435714D01*
X171006666Y-148854285D02*
X171006666Y-148378095D01*
X171292380Y-148949523D02*
X170292380Y-148616190D01*
X171292380Y-148282857D01*
X170292380Y-148044761D02*
X170292380Y-147425714D01*
X170673333Y-147759047D01*
X170673333Y-147616190D01*
X170720952Y-147520952D01*
X170768571Y-147473333D01*
X170863809Y-147425714D01*
X171101904Y-147425714D01*
X171197142Y-147473333D01*
X171244761Y-147520952D01*
X171292380Y-147616190D01*
X171292380Y-147901904D01*
X171244761Y-147997142D01*
X171197142Y-148044761D01*
X173526666Y-148894285D02*
X173526666Y-148418095D01*
X173812380Y-148989523D02*
X172812380Y-148656190D01*
X173812380Y-148322857D01*
X173145714Y-147560952D02*
X173812380Y-147560952D01*
X172764761Y-147799047D02*
X173479047Y-148037142D01*
X173479047Y-147418095D01*
X176146666Y-148934285D02*
X176146666Y-148458095D01*
X176432380Y-149029523D02*
X175432380Y-148696190D01*
X176432380Y-148362857D01*
X175432380Y-147553333D02*
X175432380Y-148029523D01*
X175908571Y-148077142D01*
X175860952Y-148029523D01*
X175813333Y-147934285D01*
X175813333Y-147696190D01*
X175860952Y-147600952D01*
X175908571Y-147553333D01*
X176003809Y-147505714D01*
X176241904Y-147505714D01*
X176337142Y-147553333D01*
X176384761Y-147600952D01*
X176432380Y-147696190D01*
X176432380Y-147934285D01*
X176384761Y-148029523D01*
X176337142Y-148077142D01*
D11*
X176583722Y-147671658D02*
X176637597Y-147779407D01*
X176772284Y-147914094D01*
X176853096Y-147941032D01*
X176906971Y-147941032D01*
X176987783Y-147914094D01*
X177041658Y-147860219D01*
X177068595Y-147779407D01*
X177068595Y-147725532D01*
X177041658Y-147644720D01*
X176960845Y-147510033D01*
X176933908Y-147429221D01*
X176933908Y-147375346D01*
X176960845Y-147294534D01*
X177014720Y-147240659D01*
X177095532Y-147213722D01*
X177149407Y-147213722D01*
X177230219Y-147240659D01*
X177364906Y-147375346D01*
X177418781Y-147483096D01*
X177499593Y-148533654D02*
X177445719Y-148533654D01*
X177337969Y-148479780D01*
X177284094Y-148425905D01*
X177230219Y-148318155D01*
X177230219Y-148210406D01*
X177257157Y-148129593D01*
X177337969Y-147994906D01*
X177418781Y-147914094D01*
X177553468Y-147833282D01*
X177634280Y-147806345D01*
X177742030Y-147806345D01*
X177849780Y-147860219D01*
X177903654Y-147914094D01*
X177957529Y-148021844D01*
X177957529Y-148075719D01*
X177688155Y-148829966D02*
X178253841Y-148264280D01*
X178011404Y-149153215D02*
X178092216Y-148587529D01*
X178577089Y-148587529D02*
X177930592Y-148587529D01*
X178655160Y-147376971D02*
X179220845Y-146811285D01*
X179005346Y-147403908D01*
X179597969Y-147188409D01*
X179032284Y-147754094D01*
X179975093Y-147565532D02*
X180082842Y-147673282D01*
X180109780Y-147754094D01*
X180109780Y-147861844D01*
X180028967Y-147996531D01*
X179840406Y-148185093D01*
X179705719Y-148265905D01*
X179597969Y-148265905D01*
X179517157Y-148238967D01*
X179409407Y-148131218D01*
X179382470Y-148050406D01*
X179382470Y-147942656D01*
X179463282Y-147807969D01*
X179651844Y-147619407D01*
X179786531Y-147538595D01*
X179894280Y-147538595D01*
X179975093Y-147565532D01*
X179894280Y-148562216D02*
X179948155Y-148669966D01*
X180082842Y-148804653D01*
X180163654Y-148831590D01*
X180217529Y-148831590D01*
X180298341Y-148804653D01*
X180352216Y-148750778D01*
X180379154Y-148669966D01*
X180379154Y-148616091D01*
X180352216Y-148535279D01*
X180271404Y-148400592D01*
X180244467Y-148319780D01*
X180244467Y-148265905D01*
X180271404Y-148185093D01*
X180325279Y-148131218D01*
X180406091Y-148104280D01*
X180459966Y-148104280D01*
X180540778Y-148131218D01*
X180675465Y-148265905D01*
X180729340Y-148373654D01*
X180433028Y-149154839D02*
X180998714Y-148589154D01*
X181225160Y-147356971D02*
X181790845Y-146791285D01*
X181575346Y-147383908D01*
X182167969Y-147168409D01*
X181602284Y-147734094D01*
X181871658Y-148003468D02*
X182437343Y-147437783D01*
X182141032Y-148218967D02*
X182194906Y-148326717D01*
X182329593Y-148461404D01*
X182410406Y-148488341D01*
X182464280Y-148488341D01*
X182545093Y-148461404D01*
X182598967Y-148407529D01*
X182625905Y-148326717D01*
X182625905Y-148272842D01*
X182598967Y-148192030D01*
X182518155Y-148057343D01*
X182491218Y-147976531D01*
X182491218Y-147922656D01*
X182518155Y-147841844D01*
X182572030Y-147787969D01*
X182652842Y-147761032D01*
X182706717Y-147761032D01*
X182787529Y-147787969D01*
X182922216Y-147922656D01*
X182976091Y-148030406D01*
X183353215Y-148353654D02*
X183460964Y-148461404D01*
X183487902Y-148542216D01*
X183487902Y-148649966D01*
X183407089Y-148784653D01*
X183218528Y-148973215D01*
X183083841Y-149054027D01*
X182976091Y-149054027D01*
X182895279Y-149027089D01*
X182787529Y-148919340D01*
X182760592Y-148838528D01*
X182760592Y-148730778D01*
X182841404Y-148596091D01*
X183029966Y-148407529D01*
X183164653Y-148326717D01*
X183272402Y-148326717D01*
X183353215Y-148353654D01*
D10*
X186572380Y-148356666D02*
X186096190Y-148690000D01*
X186572380Y-148928095D02*
X185572380Y-148928095D01*
X185572380Y-148547142D01*
X185620000Y-148451904D01*
X185667619Y-148404285D01*
X185762857Y-148356666D01*
X185905714Y-148356666D01*
X186000952Y-148404285D01*
X186048571Y-148451904D01*
X186096190Y-148547142D01*
X186096190Y-148928095D01*
X185572380Y-148023333D02*
X186572380Y-147356666D01*
X185572380Y-147356666D02*
X186572380Y-148023333D01*
X188242380Y-148981904D02*
X188242380Y-148410476D01*
X189242380Y-148696190D02*
X188242380Y-148696190D01*
X188242380Y-148172380D02*
X189242380Y-147505714D01*
X188242380Y-147505714D02*
X189242380Y-148172380D01*
X190730000Y-148271904D02*
X190682380Y-148367142D01*
X190682380Y-148510000D01*
X190730000Y-148652857D01*
X190825238Y-148748095D01*
X190920476Y-148795714D01*
X191110952Y-148843333D01*
X191253809Y-148843333D01*
X191444285Y-148795714D01*
X191539523Y-148748095D01*
X191634761Y-148652857D01*
X191682380Y-148510000D01*
X191682380Y-148414761D01*
X191634761Y-148271904D01*
X191587142Y-148224285D01*
X191253809Y-148224285D01*
X191253809Y-148414761D01*
X191682380Y-147795714D02*
X190682380Y-147795714D01*
X191682380Y-147224285D01*
X190682380Y-147224285D01*
X191682380Y-146748095D02*
X190682380Y-146748095D01*
X190682380Y-146510000D01*
X190730000Y-146367142D01*
X190825238Y-146271904D01*
X190920476Y-146224285D01*
X191110952Y-146176666D01*
X191253809Y-146176666D01*
X191444285Y-146224285D01*
X191539523Y-146271904D01*
X191634761Y-146367142D01*
X191682380Y-146510000D01*
X191682380Y-146748095D01*
X191644761Y-133234285D02*
X191692380Y-133091428D01*
X191692380Y-132853333D01*
X191644761Y-132758095D01*
X191597142Y-132710476D01*
X191501904Y-132662857D01*
X191406666Y-132662857D01*
X191311428Y-132710476D01*
X191263809Y-132758095D01*
X191216190Y-132853333D01*
X191168571Y-133043809D01*
X191120952Y-133139047D01*
X191073333Y-133186666D01*
X190978095Y-133234285D01*
X190882857Y-133234285D01*
X190787619Y-133186666D01*
X190740000Y-133139047D01*
X190692380Y-133043809D01*
X190692380Y-132805714D01*
X190740000Y-132662857D01*
X191692380Y-132234285D02*
X190692380Y-132234285D01*
X190692380Y-131996190D01*
X190740000Y-131853333D01*
X190835238Y-131758095D01*
X190930476Y-131710476D01*
X191120952Y-131662857D01*
X191263809Y-131662857D01*
X191454285Y-131710476D01*
X191549523Y-131758095D01*
X191644761Y-131853333D01*
X191692380Y-131996190D01*
X191692380Y-132234285D01*
X191406666Y-131281904D02*
X191406666Y-130805714D01*
X191692380Y-131377142D02*
X190692380Y-131043809D01*
X191692380Y-130710476D01*
X189064761Y-132970476D02*
X189112380Y-132827619D01*
X189112380Y-132589523D01*
X189064761Y-132494285D01*
X189017142Y-132446666D01*
X188921904Y-132399047D01*
X188826666Y-132399047D01*
X188731428Y-132446666D01*
X188683809Y-132494285D01*
X188636190Y-132589523D01*
X188588571Y-132780000D01*
X188540952Y-132875238D01*
X188493333Y-132922857D01*
X188398095Y-132970476D01*
X188302857Y-132970476D01*
X188207619Y-132922857D01*
X188160000Y-132875238D01*
X188112380Y-132780000D01*
X188112380Y-132541904D01*
X188160000Y-132399047D01*
X189017142Y-131399047D02*
X189064761Y-131446666D01*
X189112380Y-131589523D01*
X189112380Y-131684761D01*
X189064761Y-131827619D01*
X188969523Y-131922857D01*
X188874285Y-131970476D01*
X188683809Y-132018095D01*
X188540952Y-132018095D01*
X188350476Y-131970476D01*
X188255238Y-131922857D01*
X188160000Y-131827619D01*
X188112380Y-131684761D01*
X188112380Y-131589523D01*
X188160000Y-131446666D01*
X188207619Y-131399047D01*
X189112380Y-130494285D02*
X189112380Y-130970476D01*
X188112380Y-130970476D01*
X186712380Y-132278095D02*
X185712380Y-132278095D01*
X185712380Y-132040000D01*
X185760000Y-131897142D01*
X185855238Y-131801904D01*
X185950476Y-131754285D01*
X186140952Y-131706666D01*
X186283809Y-131706666D01*
X186474285Y-131754285D01*
X186569523Y-131801904D01*
X186664761Y-131897142D01*
X186712380Y-132040000D01*
X186712380Y-132278095D01*
X185712380Y-130801904D02*
X185712380Y-131278095D01*
X186188571Y-131325714D01*
X186140952Y-131278095D01*
X186093333Y-131182857D01*
X186093333Y-130944761D01*
X186140952Y-130849523D01*
X186188571Y-130801904D01*
X186283809Y-130754285D01*
X186521904Y-130754285D01*
X186617142Y-130801904D01*
X186664761Y-130849523D01*
X186712380Y-130944761D01*
X186712380Y-131182857D01*
X186664761Y-131278095D01*
X186617142Y-131325714D01*
X184142380Y-132258095D02*
X183142380Y-132258095D01*
X183142380Y-132020000D01*
X183190000Y-131877142D01*
X183285238Y-131781904D01*
X183380476Y-131734285D01*
X183570952Y-131686666D01*
X183713809Y-131686666D01*
X183904285Y-131734285D01*
X183999523Y-131781904D01*
X184094761Y-131877142D01*
X184142380Y-132020000D01*
X184142380Y-132258095D01*
X183142380Y-130829523D02*
X183142380Y-131020000D01*
X183190000Y-131115238D01*
X183237619Y-131162857D01*
X183380476Y-131258095D01*
X183570952Y-131305714D01*
X183951904Y-131305714D01*
X184047142Y-131258095D01*
X184094761Y-131210476D01*
X184142380Y-131115238D01*
X184142380Y-130924761D01*
X184094761Y-130829523D01*
X184047142Y-130781904D01*
X183951904Y-130734285D01*
X183713809Y-130734285D01*
X183618571Y-130781904D01*
X183570952Y-130829523D01*
X183523333Y-130924761D01*
X183523333Y-131115238D01*
X183570952Y-131210476D01*
X183618571Y-131258095D01*
X183713809Y-131305714D01*
X181552380Y-132278095D02*
X180552380Y-132278095D01*
X180552380Y-132040000D01*
X180600000Y-131897142D01*
X180695238Y-131801904D01*
X180790476Y-131754285D01*
X180980952Y-131706666D01*
X181123809Y-131706666D01*
X181314285Y-131754285D01*
X181409523Y-131801904D01*
X181504761Y-131897142D01*
X181552380Y-132040000D01*
X181552380Y-132278095D01*
X181552380Y-131230476D02*
X181552380Y-131040000D01*
X181504761Y-130944761D01*
X181457142Y-130897142D01*
X181314285Y-130801904D01*
X181123809Y-130754285D01*
X180742857Y-130754285D01*
X180647619Y-130801904D01*
X180600000Y-130849523D01*
X180552380Y-130944761D01*
X180552380Y-131135238D01*
X180600000Y-131230476D01*
X180647619Y-131278095D01*
X180742857Y-131325714D01*
X180980952Y-131325714D01*
X181076190Y-131278095D01*
X181123809Y-131230476D01*
X181171428Y-131135238D01*
X181171428Y-130944761D01*
X181123809Y-130849523D01*
X181076190Y-130801904D01*
X180980952Y-130754285D01*
X179052380Y-133204285D02*
X178052380Y-133204285D01*
X178052380Y-132966190D01*
X178100000Y-132823333D01*
X178195238Y-132728095D01*
X178290476Y-132680476D01*
X178480952Y-132632857D01*
X178623809Y-132632857D01*
X178814285Y-132680476D01*
X178909523Y-132728095D01*
X179004761Y-132823333D01*
X179052380Y-132966190D01*
X179052380Y-133204285D01*
X179052380Y-131680476D02*
X179052380Y-132251904D01*
X179052380Y-131966190D02*
X178052380Y-131966190D01*
X178195238Y-132061428D01*
X178290476Y-132156666D01*
X178338095Y-132251904D01*
X178052380Y-131061428D02*
X178052380Y-130966190D01*
X178100000Y-130870952D01*
X178147619Y-130823333D01*
X178242857Y-130775714D01*
X178433333Y-130728095D01*
X178671428Y-130728095D01*
X178861904Y-130775714D01*
X178957142Y-130823333D01*
X179004761Y-130870952D01*
X179052380Y-130966190D01*
X179052380Y-131061428D01*
X179004761Y-131156666D01*
X178957142Y-131204285D01*
X178861904Y-131251904D01*
X178671428Y-131299523D01*
X178433333Y-131299523D01*
X178242857Y-131251904D01*
X178147619Y-131204285D01*
X178100000Y-131156666D01*
X178052380Y-131061428D01*
X176382380Y-133134285D02*
X175382380Y-133134285D01*
X175382380Y-132896190D01*
X175430000Y-132753333D01*
X175525238Y-132658095D01*
X175620476Y-132610476D01*
X175810952Y-132562857D01*
X175953809Y-132562857D01*
X176144285Y-132610476D01*
X176239523Y-132658095D01*
X176334761Y-132753333D01*
X176382380Y-132896190D01*
X176382380Y-133134285D01*
X176382380Y-131610476D02*
X176382380Y-132181904D01*
X176382380Y-131896190D02*
X175382380Y-131896190D01*
X175525238Y-131991428D01*
X175620476Y-132086666D01*
X175668095Y-132181904D01*
X176382380Y-130658095D02*
X176382380Y-131229523D01*
X176382380Y-130943809D02*
X175382380Y-130943809D01*
X175525238Y-131039047D01*
X175620476Y-131134285D01*
X175668095Y-131229523D01*
X173932380Y-133224285D02*
X172932380Y-133224285D01*
X172932380Y-132986190D01*
X172980000Y-132843333D01*
X173075238Y-132748095D01*
X173170476Y-132700476D01*
X173360952Y-132652857D01*
X173503809Y-132652857D01*
X173694285Y-132700476D01*
X173789523Y-132748095D01*
X173884761Y-132843333D01*
X173932380Y-132986190D01*
X173932380Y-133224285D01*
X173932380Y-131700476D02*
X173932380Y-132271904D01*
X173932380Y-131986190D02*
X172932380Y-131986190D01*
X173075238Y-132081428D01*
X173170476Y-132176666D01*
X173218095Y-132271904D01*
X173027619Y-131319523D02*
X172980000Y-131271904D01*
X172932380Y-131176666D01*
X172932380Y-130938571D01*
X172980000Y-130843333D01*
X173027619Y-130795714D01*
X173122857Y-130748095D01*
X173218095Y-130748095D01*
X173360952Y-130795714D01*
X173932380Y-131367142D01*
X173932380Y-130748095D01*
X171402380Y-133234285D02*
X170402380Y-133234285D01*
X170402380Y-132996190D01*
X170450000Y-132853333D01*
X170545238Y-132758095D01*
X170640476Y-132710476D01*
X170830952Y-132662857D01*
X170973809Y-132662857D01*
X171164285Y-132710476D01*
X171259523Y-132758095D01*
X171354761Y-132853333D01*
X171402380Y-132996190D01*
X171402380Y-133234285D01*
X171402380Y-131710476D02*
X171402380Y-132281904D01*
X171402380Y-131996190D02*
X170402380Y-131996190D01*
X170545238Y-132091428D01*
X170640476Y-132186666D01*
X170688095Y-132281904D01*
X170402380Y-131377142D02*
X170402380Y-130758095D01*
X170783333Y-131091428D01*
X170783333Y-130948571D01*
X170830952Y-130853333D01*
X170878571Y-130805714D01*
X170973809Y-130758095D01*
X171211904Y-130758095D01*
X171307142Y-130805714D01*
X171354761Y-130853333D01*
X171402380Y-130948571D01*
X171402380Y-131234285D01*
X171354761Y-131329523D01*
X171307142Y-131377142D01*
X167882380Y-134313333D02*
X168882380Y-133980000D01*
X167882380Y-133646666D01*
X168358571Y-132980000D02*
X168406190Y-132837142D01*
X168453809Y-132789523D01*
X168549047Y-132741904D01*
X168691904Y-132741904D01*
X168787142Y-132789523D01*
X168834761Y-132837142D01*
X168882380Y-132932380D01*
X168882380Y-133313333D01*
X167882380Y-133313333D01*
X167882380Y-132980000D01*
X167930000Y-132884761D01*
X167977619Y-132837142D01*
X168072857Y-132789523D01*
X168168095Y-132789523D01*
X168263333Y-132837142D01*
X168310952Y-132884761D01*
X168358571Y-132980000D01*
X168358571Y-133313333D01*
X167882380Y-132313333D02*
X168691904Y-132313333D01*
X168787142Y-132265714D01*
X168834761Y-132218095D01*
X168882380Y-132122857D01*
X168882380Y-131932380D01*
X168834761Y-131837142D01*
X168787142Y-131789523D01*
X168691904Y-131741904D01*
X167882380Y-131741904D01*
X168834761Y-131313333D02*
X168882380Y-131170476D01*
X168882380Y-130932380D01*
X168834761Y-130837142D01*
X168787142Y-130789523D01*
X168691904Y-130741904D01*
X168596666Y-130741904D01*
X168501428Y-130789523D01*
X168453809Y-130837142D01*
X168406190Y-130932380D01*
X168358571Y-131122857D01*
X168310952Y-131218095D01*
X168263333Y-131265714D01*
X168168095Y-131313333D01*
X168072857Y-131313333D01*
X167977619Y-131265714D01*
X167930000Y-131218095D01*
X167882380Y-131122857D01*
X167882380Y-130884761D01*
X167930000Y-130741904D01*
X165798571Y-132278095D02*
X165798571Y-131944761D01*
X166322380Y-131801904D02*
X166322380Y-132278095D01*
X165322380Y-132278095D01*
X165322380Y-131801904D01*
X166322380Y-131373333D02*
X165322380Y-131373333D01*
X166322380Y-130801904D01*
X165322380Y-130801904D01*
X163298571Y-133389047D02*
X163346190Y-133246190D01*
X163393809Y-133198571D01*
X163489047Y-133150952D01*
X163631904Y-133150952D01*
X163727142Y-133198571D01*
X163774761Y-133246190D01*
X163822380Y-133341428D01*
X163822380Y-133722380D01*
X162822380Y-133722380D01*
X162822380Y-133389047D01*
X162870000Y-133293809D01*
X162917619Y-133246190D01*
X163012857Y-133198571D01*
X163108095Y-133198571D01*
X163203333Y-133246190D01*
X163250952Y-133293809D01*
X163298571Y-133389047D01*
X163298571Y-133722380D01*
X163536666Y-132770000D02*
X163536666Y-132293809D01*
X163822380Y-132865238D02*
X162822380Y-132531904D01*
X163822380Y-132198571D01*
X162822380Y-132008095D02*
X162822380Y-131436666D01*
X163822380Y-131722380D02*
X162822380Y-131722380D01*
X162822380Y-131246190D02*
X162822380Y-130674761D01*
X163822380Y-130960476D02*
X162822380Y-130960476D01*
X189772380Y-143173809D02*
X189248571Y-143173809D01*
X189153333Y-143221428D01*
X189105714Y-143316666D01*
X189105714Y-143507142D01*
X189153333Y-143602380D01*
X189724761Y-143173809D02*
X189772380Y-143269047D01*
X189772380Y-143507142D01*
X189724761Y-143602380D01*
X189629523Y-143650000D01*
X189534285Y-143650000D01*
X189439047Y-143602380D01*
X189391428Y-143507142D01*
X189391428Y-143269047D01*
X189343809Y-143173809D01*
X189867619Y-142935714D02*
X189867619Y-142173809D01*
X189105714Y-142030952D02*
X189772380Y-141840476D01*
X189296190Y-141650000D01*
X189772380Y-141459523D01*
X189105714Y-141269047D01*
X189724761Y-140507142D02*
X189772380Y-140602380D01*
X189772380Y-140792857D01*
X189724761Y-140888095D01*
X189629523Y-140935714D01*
X189248571Y-140935714D01*
X189153333Y-140888095D01*
X189105714Y-140792857D01*
X189105714Y-140602380D01*
X189153333Y-140507142D01*
X189248571Y-140459523D01*
X189343809Y-140459523D01*
X189439047Y-140935714D01*
X189724761Y-140078571D02*
X189772380Y-139983333D01*
X189772380Y-139792857D01*
X189724761Y-139697619D01*
X189629523Y-139650000D01*
X189581904Y-139650000D01*
X189486666Y-139697619D01*
X189439047Y-139792857D01*
X189439047Y-139935714D01*
X189391428Y-140030952D01*
X189296190Y-140078571D01*
X189248571Y-140078571D01*
X189153333Y-140030952D01*
X189105714Y-139935714D01*
X189105714Y-139792857D01*
X189153333Y-139697619D01*
X189105714Y-139364285D02*
X189105714Y-138983333D01*
X188772380Y-139221428D02*
X189629523Y-139221428D01*
X189724761Y-139173809D01*
X189772380Y-139078571D01*
X189772380Y-138983333D01*
X189772380Y-138650000D02*
X189105714Y-138650000D01*
X189296190Y-138650000D02*
X189200952Y-138602380D01*
X189153333Y-138554761D01*
X189105714Y-138459523D01*
X189105714Y-138364285D01*
X189105714Y-137602380D02*
X189772380Y-137602380D01*
X189105714Y-138030952D02*
X189629523Y-138030952D01*
X189724761Y-137983333D01*
X189772380Y-137888095D01*
X189772380Y-137745238D01*
X189724761Y-137650000D01*
X189677142Y-137602380D01*
X189105714Y-137126190D02*
X190105714Y-137126190D01*
X189153333Y-137126190D02*
X189105714Y-137030952D01*
X189105714Y-136840476D01*
X189153333Y-136745238D01*
X189200952Y-136697619D01*
X189296190Y-136650000D01*
X189581904Y-136650000D01*
X189677142Y-136697619D01*
X189724761Y-136745238D01*
X189772380Y-136840476D01*
X189772380Y-137030952D01*
X189724761Y-137126190D01*
X195378571Y-144971904D02*
X195378571Y-144638571D01*
X195902380Y-144495714D02*
X195902380Y-144971904D01*
X194902380Y-144971904D01*
X194902380Y-144495714D01*
X195378571Y-143733809D02*
X195378571Y-144067142D01*
X195902380Y-144067142D02*
X194902380Y-144067142D01*
X194902380Y-143590952D01*
X195902380Y-142638571D02*
X195426190Y-142971904D01*
X195902380Y-143210000D02*
X194902380Y-143210000D01*
X194902380Y-142829047D01*
X194950000Y-142733809D01*
X194997619Y-142686190D01*
X195092857Y-142638571D01*
X195235714Y-142638571D01*
X195330952Y-142686190D01*
X195378571Y-142733809D01*
X195426190Y-142829047D01*
X195426190Y-143210000D01*
X194902380Y-142305238D02*
X194902380Y-141686190D01*
X195283333Y-142019523D01*
X195283333Y-141876666D01*
X195330952Y-141781428D01*
X195378571Y-141733809D01*
X195473809Y-141686190D01*
X195711904Y-141686190D01*
X195807142Y-141733809D01*
X195854761Y-141781428D01*
X195902380Y-141876666D01*
X195902380Y-142162380D01*
X195854761Y-142257619D01*
X195807142Y-142305238D01*
X194997619Y-141305238D02*
X194950000Y-141257619D01*
X194902380Y-141162380D01*
X194902380Y-140924285D01*
X194950000Y-140829047D01*
X194997619Y-140781428D01*
X195092857Y-140733809D01*
X195188095Y-140733809D01*
X195330952Y-140781428D01*
X195902380Y-141352857D01*
X195902380Y-140733809D01*
X195378571Y-139210000D02*
X195378571Y-139543333D01*
X195902380Y-139543333D02*
X194902380Y-139543333D01*
X194902380Y-139067142D01*
X195854761Y-138305238D02*
X195902380Y-138400476D01*
X195902380Y-138590952D01*
X195854761Y-138686190D01*
X195759523Y-138733809D01*
X195378571Y-138733809D01*
X195283333Y-138686190D01*
X195235714Y-138590952D01*
X195235714Y-138400476D01*
X195283333Y-138305238D01*
X195378571Y-138257619D01*
X195473809Y-138257619D01*
X195569047Y-138733809D01*
X195902380Y-137400476D02*
X195378571Y-137400476D01*
X195283333Y-137448095D01*
X195235714Y-137543333D01*
X195235714Y-137733809D01*
X195283333Y-137829047D01*
X195854761Y-137400476D02*
X195902380Y-137495714D01*
X195902380Y-137733809D01*
X195854761Y-137829047D01*
X195759523Y-137876666D01*
X195664285Y-137876666D01*
X195569047Y-137829047D01*
X195521428Y-137733809D01*
X195521428Y-137495714D01*
X195473809Y-137400476D01*
X195235714Y-137067142D02*
X195235714Y-136686190D01*
X194902380Y-136924285D02*
X195759523Y-136924285D01*
X195854761Y-136876666D01*
X195902380Y-136781428D01*
X195902380Y-136686190D01*
X195902380Y-136352857D02*
X194902380Y-136352857D01*
X195902380Y-135924285D02*
X195378571Y-135924285D01*
X195283333Y-135971904D01*
X195235714Y-136067142D01*
X195235714Y-136210000D01*
X195283333Y-136305238D01*
X195330952Y-136352857D01*
X195854761Y-135067142D02*
X195902380Y-135162380D01*
X195902380Y-135352857D01*
X195854761Y-135448095D01*
X195759523Y-135495714D01*
X195378571Y-135495714D01*
X195283333Y-135448095D01*
X195235714Y-135352857D01*
X195235714Y-135162380D01*
X195283333Y-135067142D01*
X195378571Y-135019523D01*
X195473809Y-135019523D01*
X195569047Y-135495714D01*
X195902380Y-134590952D02*
X195235714Y-134590952D01*
X195426190Y-134590952D02*
X195330952Y-134543333D01*
X195283333Y-134495714D01*
X195235714Y-134400476D01*
X195235714Y-134305238D01*
D12*
X171240000Y-136395000D02*
X171240000Y-135920000D01*
X167020000Y-140140000D02*
X167495000Y-140140000D01*
X167020000Y-139665000D02*
X167020000Y-140140000D01*
X167020000Y-135920000D02*
X167495000Y-135920000D01*
X167020000Y-136395000D02*
X167020000Y-135920000D01*
X171240000Y-140140000D02*
X170765000Y-140140000D01*
X171240000Y-139665000D02*
X171240000Y-140140000D01*
X155370000Y-144570000D02*
X155370000Y-144870000D01*
X152070000Y-144570000D02*
X155370000Y-144570000D01*
X152070000Y-144870000D02*
X152070000Y-144570000D01*
X155370000Y-147370000D02*
X155370000Y-147070000D01*
X152070000Y-147370000D02*
X155370000Y-147370000D01*
X152070000Y-147070000D02*
X152070000Y-147370000D01*
X187260000Y-143615000D02*
X187310000Y-143615000D01*
X187260000Y-146035000D02*
X187310000Y-146035000D01*
X182190000Y-143615000D02*
X182240000Y-143615000D01*
X182190000Y-146035000D02*
X182240000Y-146035000D01*
X182240000Y-147415000D02*
X182240000Y-146035000D01*
X187310000Y-146035000D02*
X187310000Y-143615000D01*
X182190000Y-146035000D02*
X182190000Y-143615000D01*
X161900000Y-141050000D02*
X164450000Y-141050000D01*
X161900000Y-142750000D02*
X164450000Y-142750000D01*
X161900000Y-141050000D02*
X161900000Y-142750000D01*
X159410000Y-134910000D02*
X159410000Y-136125000D01*
X159350000Y-130950000D02*
X159350000Y-128690000D01*
X158850000Y-130950000D02*
X158850000Y-128690000D01*
X156250000Y-132550000D02*
X155250000Y-132550000D01*
X156250000Y-130950000D02*
X156250000Y-132550000D01*
X155250000Y-130950000D02*
X156250000Y-130950000D01*
X155250000Y-132550000D02*
X155250000Y-130950000D01*
X158850000Y-132550000D02*
X159850000Y-132550000D01*
X158850000Y-130950000D02*
X158850000Y-132550000D01*
X159850000Y-130950000D02*
X158850000Y-130950000D01*
X159850000Y-132550000D02*
X159850000Y-130950000D01*
X154490000Y-134910000D02*
X155410000Y-134910000D01*
X160610000Y-134910000D02*
X159690000Y-134910000D01*
X157050000Y-133050000D02*
X157050000Y-128690000D01*
X158050000Y-133050000D02*
X157050000Y-133050000D01*
X158050000Y-128690000D02*
X158050000Y-133050000D01*
X155410000Y-134910000D02*
X155690000Y-134910000D01*
X155410000Y-136510000D02*
X155410000Y-134910000D01*
X154490000Y-136510000D02*
X155410000Y-136510000D01*
X154490000Y-128690000D02*
X154490000Y-136510000D01*
X160610000Y-128690000D02*
X154490000Y-128690000D01*
X160610000Y-136510000D02*
X160610000Y-128690000D01*
X159690000Y-136510000D02*
X160610000Y-136510000D01*
X159690000Y-134910000D02*
X159690000Y-136510000D01*
X159410000Y-134910000D02*
X159690000Y-134910000D01*
X180635000Y-143110000D02*
X181110000Y-143110000D01*
X173890000Y-135890000D02*
X173890000Y-136365000D01*
X174365000Y-135890000D02*
X173890000Y-135890000D01*
X181110000Y-135890000D02*
X181110000Y-136365000D01*
X180635000Y-135890000D02*
X181110000Y-135890000D01*
X173890000Y-143110000D02*
X173890000Y-142635000D01*
X174365000Y-143110000D02*
X173890000Y-143110000D01*
X156680000Y-137940000D02*
X156680000Y-139400000D01*
X153520000Y-137940000D02*
X153520000Y-140100000D01*
X153520000Y-137940000D02*
X154450000Y-137940000D01*
X156680000Y-137940000D02*
X155750000Y-137940000D01*
X166890000Y-142312779D02*
X166890000Y-141987221D01*
X165870000Y-142312779D02*
X165870000Y-141987221D01*
X158200000Y-140410000D02*
X160650000Y-140410000D01*
X160000000Y-137190000D02*
X158200000Y-137190000D01*
X158862779Y-140990000D02*
X158537221Y-140990000D01*
X158862779Y-142010000D02*
X158537221Y-142010000D01*
X153710000Y-133562779D02*
X153710000Y-133237221D01*
X152690000Y-133562779D02*
X152690000Y-133237221D01*
X154637221Y-143810000D02*
X154962779Y-143810000D01*
X154637221Y-142790000D02*
X154962779Y-142790000D01*
X153935000Y-131685000D02*
X153935000Y-129400000D01*
X152465000Y-131685000D02*
X153935000Y-131685000D01*
X152465000Y-129400000D02*
X152465000Y-131685000D01*
X156500000Y-142350000D02*
X153950000Y-142350000D01*
X156500000Y-140650000D02*
X153950000Y-140650000D01*
X156500000Y-142350000D02*
X156500000Y-140650000D01*
X162310000Y-136862779D02*
X162310000Y-136537221D01*
X161290000Y-136862779D02*
X161290000Y-136537221D01*
X187650000Y-140000000D02*
X187650000Y-136000000D01*
X184350000Y-140000000D02*
X187650000Y-140000000D01*
X173675000Y-145025000D02*
X173675000Y-146375000D01*
X171925000Y-145025000D02*
X171925000Y-146375000D01*
X163237221Y-140410000D02*
X163562779Y-140410000D01*
X163237221Y-139390000D02*
X163562779Y-139390000D01*
X161600000Y-143140000D02*
X159150000Y-143140000D01*
X159800000Y-146360000D02*
X161600000Y-146360000D01*
X163040000Y-144587221D02*
X163040000Y-144912779D01*
X164060000Y-144587221D02*
X164060000Y-144912779D01*
X157290000Y-144637221D02*
X157290000Y-144962779D01*
X158310000Y-144637221D02*
X158310000Y-144962779D01*
X177990000Y-133962779D02*
X177990000Y-133637221D01*
X176970000Y-133962779D02*
X176970000Y-133637221D01*
X182490000Y-138937221D02*
X182490000Y-139262779D01*
X183510000Y-138937221D02*
X183510000Y-139262779D01*
X177110000Y-145872779D02*
X177110000Y-145547221D01*
X176090000Y-145872779D02*
X176090000Y-145547221D01*
X174590000Y-145537221D02*
X174590000Y-145862779D01*
X175610000Y-145537221D02*
X175610000Y-145862779D01*
X177590000Y-145537221D02*
X177590000Y-145862779D01*
X178610000Y-145537221D02*
X178610000Y-145862779D01*
X151762500Y-138100000D02*
X151312500Y-138100000D01*
X151762500Y-138100000D02*
X151762500Y-138550000D01*
X151212500Y-143700000D02*
X151212500Y-143250000D01*
X149362500Y-143700000D02*
X151212500Y-143700000D01*
X146812500Y-135900000D02*
X147062500Y-135900000D01*
X146812500Y-143700000D02*
X147062500Y-143700000D01*
X149362500Y-135900000D02*
X151212500Y-135900000D01*
X151212500Y-135900000D02*
X151212500Y-136350000D01*
D10*
X171882380Y-138791904D02*
X172691904Y-138791904D01*
X172787142Y-138744285D01*
X172834761Y-138696666D01*
X172882380Y-138601428D01*
X172882380Y-138410952D01*
X172834761Y-138315714D01*
X172787142Y-138268095D01*
X172691904Y-138220476D01*
X171882380Y-138220476D01*
X172215714Y-137315714D02*
X172882380Y-137315714D01*
X171834761Y-137553809D02*
X172549047Y-137791904D01*
X172549047Y-137172857D01*
X184014952Y-134469345D02*
X183678234Y-134132627D01*
X184385341Y-133425521D01*
X184621043Y-135075437D02*
X184216982Y-134671376D01*
X184419013Y-134873406D02*
X185126120Y-134166299D01*
X184957761Y-134199971D01*
X184823074Y-134199971D01*
X184722059Y-134166299D01*
X187774687Y-135560389D02*
X187774687Y-135627732D01*
X187707343Y-135762419D01*
X187640000Y-135829763D01*
X187505312Y-135897106D01*
X187370625Y-135897106D01*
X187269610Y-135863435D01*
X187101251Y-135762419D01*
X187000236Y-135661404D01*
X186899221Y-135493045D01*
X186865549Y-135392030D01*
X186865549Y-135257343D01*
X186932893Y-135122656D01*
X187000236Y-135055312D01*
X187134923Y-134987969D01*
X187202267Y-134987969D01*
X188178748Y-135291015D02*
X188313435Y-135156328D01*
X188347106Y-135055312D01*
X188347106Y-134987969D01*
X188313435Y-134819610D01*
X188212419Y-134651251D01*
X187943045Y-134381877D01*
X187842030Y-134348206D01*
X187774687Y-134348206D01*
X187673671Y-134381877D01*
X187538984Y-134516564D01*
X187505312Y-134617580D01*
X187505312Y-134684923D01*
X187538984Y-134785938D01*
X187707343Y-134954297D01*
X187808358Y-134987969D01*
X187875702Y-134987969D01*
X187976717Y-134954297D01*
X188111404Y-134819610D01*
X188145076Y-134718595D01*
X188145076Y-134651251D01*
X188111404Y-134550236D01*
X180642380Y-145158333D02*
X181356666Y-145158333D01*
X181499523Y-145205952D01*
X181594761Y-145301190D01*
X181642380Y-145444047D01*
X181642380Y-145539285D01*
X180642380Y-144205952D02*
X180642380Y-144682142D01*
X181118571Y-144729761D01*
X181070952Y-144682142D01*
X181023333Y-144586904D01*
X181023333Y-144348809D01*
X181070952Y-144253571D01*
X181118571Y-144205952D01*
X181213809Y-144158333D01*
X181451904Y-144158333D01*
X181547142Y-144205952D01*
X181594761Y-144253571D01*
X181642380Y-144348809D01*
X181642380Y-144586904D01*
X181594761Y-144682142D01*
X181547142Y-144729761D01*
X164101904Y-143992380D02*
X164101904Y-142992380D01*
X164340000Y-142992380D01*
X164482857Y-143040000D01*
X164578095Y-143135238D01*
X164625714Y-143230476D01*
X164673333Y-143420952D01*
X164673333Y-143563809D01*
X164625714Y-143754285D01*
X164578095Y-143849523D01*
X164482857Y-143944761D01*
X164340000Y-143992380D01*
X164101904Y-143992380D01*
X165625714Y-143992380D02*
X165054285Y-143992380D01*
X165340000Y-143992380D02*
X165340000Y-142992380D01*
X165244761Y-143135238D01*
X165149523Y-143230476D01*
X165054285Y-143278095D01*
X157066666Y-135982380D02*
X157066666Y-136696666D01*
X157019047Y-136839523D01*
X156923809Y-136934761D01*
X156780952Y-136982380D01*
X156685714Y-136982380D01*
X157495238Y-136077619D02*
X157542857Y-136030000D01*
X157638095Y-135982380D01*
X157876190Y-135982380D01*
X157971428Y-136030000D01*
X158019047Y-136077619D01*
X158066666Y-136172857D01*
X158066666Y-136268095D01*
X158019047Y-136410952D01*
X157447619Y-136982380D01*
X158066666Y-136982380D01*
X174898095Y-133962380D02*
X174898095Y-134771904D01*
X174945714Y-134867142D01*
X174993333Y-134914761D01*
X175088571Y-134962380D01*
X175279047Y-134962380D01*
X175374285Y-134914761D01*
X175421904Y-134867142D01*
X175469523Y-134771904D01*
X175469523Y-133962380D01*
X176469523Y-134962380D02*
X175898095Y-134962380D01*
X176183809Y-134962380D02*
X176183809Y-133962380D01*
X176088571Y-134105238D01*
X175993333Y-134200476D01*
X175898095Y-134248095D01*
X153244761Y-137727619D02*
X153149523Y-137680000D01*
X153054285Y-137584761D01*
X152911428Y-137441904D01*
X152816190Y-137394285D01*
X152720952Y-137394285D01*
X152768571Y-137632380D02*
X152673333Y-137584761D01*
X152578095Y-137489523D01*
X152530476Y-137299047D01*
X152530476Y-136965714D01*
X152578095Y-136775238D01*
X152673333Y-136680000D01*
X152768571Y-136632380D01*
X152959047Y-136632380D01*
X153054285Y-136680000D01*
X153149523Y-136775238D01*
X153197142Y-136965714D01*
X153197142Y-137299047D01*
X153149523Y-137489523D01*
X153054285Y-137584761D01*
X152959047Y-137632380D01*
X152768571Y-137632380D01*
X154149523Y-137632380D02*
X153578095Y-137632380D01*
X153863809Y-137632380D02*
X153863809Y-136632380D01*
X153768571Y-136775238D01*
X153673333Y-136870476D01*
X153578095Y-136918095D01*
X168222380Y-142516666D02*
X167746190Y-142850000D01*
X168222380Y-143088095D02*
X167222380Y-143088095D01*
X167222380Y-142707142D01*
X167270000Y-142611904D01*
X167317619Y-142564285D01*
X167412857Y-142516666D01*
X167555714Y-142516666D01*
X167650952Y-142564285D01*
X167698571Y-142611904D01*
X167746190Y-142707142D01*
X167746190Y-143088095D01*
X167222380Y-141611904D02*
X167222380Y-142088095D01*
X167698571Y-142135714D01*
X167650952Y-142088095D01*
X167603333Y-141992857D01*
X167603333Y-141754761D01*
X167650952Y-141659523D01*
X167698571Y-141611904D01*
X167793809Y-141564285D01*
X168031904Y-141564285D01*
X168127142Y-141611904D01*
X168174761Y-141659523D01*
X168222380Y-141754761D01*
X168222380Y-141992857D01*
X168174761Y-142088095D01*
X168127142Y-142135714D01*
X161078095Y-138332380D02*
X161078095Y-139141904D01*
X161125714Y-139237142D01*
X161173333Y-139284761D01*
X161268571Y-139332380D01*
X161459047Y-139332380D01*
X161554285Y-139284761D01*
X161601904Y-139237142D01*
X161649523Y-139141904D01*
X161649523Y-138332380D01*
X162030476Y-138332380D02*
X162649523Y-138332380D01*
X162316190Y-138713333D01*
X162459047Y-138713333D01*
X162554285Y-138760952D01*
X162601904Y-138808571D01*
X162649523Y-138903809D01*
X162649523Y-139141904D01*
X162601904Y-139237142D01*
X162554285Y-139284761D01*
X162459047Y-139332380D01*
X162173333Y-139332380D01*
X162078095Y-139284761D01*
X162030476Y-139237142D01*
X160713333Y-141682380D02*
X160380000Y-141206190D01*
X160141904Y-141682380D02*
X160141904Y-140682380D01*
X160522857Y-140682380D01*
X160618095Y-140730000D01*
X160665714Y-140777619D01*
X160713333Y-140872857D01*
X160713333Y-141015714D01*
X160665714Y-141110952D01*
X160618095Y-141158571D01*
X160522857Y-141206190D01*
X160141904Y-141206190D01*
X161570476Y-141015714D02*
X161570476Y-141682380D01*
X161332380Y-140634761D02*
X161094285Y-141349047D01*
X161713333Y-141349047D01*
X152222380Y-133566666D02*
X151746190Y-133900000D01*
X152222380Y-134138095D02*
X151222380Y-134138095D01*
X151222380Y-133757142D01*
X151270000Y-133661904D01*
X151317619Y-133614285D01*
X151412857Y-133566666D01*
X151555714Y-133566666D01*
X151650952Y-133614285D01*
X151698571Y-133661904D01*
X151746190Y-133757142D01*
X151746190Y-134138095D01*
X151222380Y-133233333D02*
X151222380Y-132614285D01*
X151603333Y-132947619D01*
X151603333Y-132804761D01*
X151650952Y-132709523D01*
X151698571Y-132661904D01*
X151793809Y-132614285D01*
X152031904Y-132614285D01*
X152127142Y-132661904D01*
X152174761Y-132709523D01*
X152222380Y-132804761D01*
X152222380Y-133090476D01*
X152174761Y-133185714D01*
X152127142Y-133233333D01*
X152213333Y-143772380D02*
X151880000Y-143296190D01*
X151641904Y-143772380D02*
X151641904Y-142772380D01*
X152022857Y-142772380D01*
X152118095Y-142820000D01*
X152165714Y-142867619D01*
X152213333Y-142962857D01*
X152213333Y-143105714D01*
X152165714Y-143200952D01*
X152118095Y-143248571D01*
X152022857Y-143296190D01*
X151641904Y-143296190D01*
X152594285Y-142867619D02*
X152641904Y-142820000D01*
X152737142Y-142772380D01*
X152975238Y-142772380D01*
X153070476Y-142820000D01*
X153118095Y-142867619D01*
X153165714Y-142962857D01*
X153165714Y-143058095D01*
X153118095Y-143200952D01*
X152546666Y-143772380D01*
X153165714Y-143772380D01*
X152222380Y-130938095D02*
X151222380Y-130938095D01*
X151222380Y-130700000D01*
X151270000Y-130557142D01*
X151365238Y-130461904D01*
X151460476Y-130414285D01*
X151650952Y-130366666D01*
X151793809Y-130366666D01*
X151984285Y-130414285D01*
X152079523Y-130461904D01*
X152174761Y-130557142D01*
X152222380Y-130700000D01*
X152222380Y-130938095D01*
X151222380Y-130033333D02*
X151222380Y-129414285D01*
X151603333Y-129747619D01*
X151603333Y-129604761D01*
X151650952Y-129509523D01*
X151698571Y-129461904D01*
X151793809Y-129414285D01*
X152031904Y-129414285D01*
X152127142Y-129461904D01*
X152174761Y-129509523D01*
X152222380Y-129604761D01*
X152222380Y-129890476D01*
X152174761Y-129985714D01*
X152127142Y-130033333D01*
X151871904Y-141992380D02*
X151871904Y-140992380D01*
X152110000Y-140992380D01*
X152252857Y-141040000D01*
X152348095Y-141135238D01*
X152395714Y-141230476D01*
X152443333Y-141420952D01*
X152443333Y-141563809D01*
X152395714Y-141754285D01*
X152348095Y-141849523D01*
X152252857Y-141944761D01*
X152110000Y-141992380D01*
X151871904Y-141992380D01*
X152824285Y-141087619D02*
X152871904Y-141040000D01*
X152967142Y-140992380D01*
X153205238Y-140992380D01*
X153300476Y-141040000D01*
X153348095Y-141087619D01*
X153395714Y-141182857D01*
X153395714Y-141278095D01*
X153348095Y-141420952D01*
X152776666Y-141992380D01*
X153395714Y-141992380D01*
X163557142Y-136726666D02*
X163604761Y-136774285D01*
X163652380Y-136917142D01*
X163652380Y-137012380D01*
X163604761Y-137155238D01*
X163509523Y-137250476D01*
X163414285Y-137298095D01*
X163223809Y-137345714D01*
X163080952Y-137345714D01*
X162890476Y-137298095D01*
X162795238Y-137250476D01*
X162700000Y-137155238D01*
X162652380Y-137012380D01*
X162652380Y-136917142D01*
X162700000Y-136774285D01*
X162747619Y-136726666D01*
X163080952Y-136155238D02*
X163033333Y-136250476D01*
X162985714Y-136298095D01*
X162890476Y-136345714D01*
X162842857Y-136345714D01*
X162747619Y-136298095D01*
X162700000Y-136250476D01*
X162652380Y-136155238D01*
X162652380Y-135964761D01*
X162700000Y-135869523D01*
X162747619Y-135821904D01*
X162842857Y-135774285D01*
X162890476Y-135774285D01*
X162985714Y-135821904D01*
X163033333Y-135869523D01*
X163080952Y-135964761D01*
X163080952Y-136155238D01*
X163128571Y-136250476D01*
X163176190Y-136298095D01*
X163271428Y-136345714D01*
X163461904Y-136345714D01*
X163557142Y-136298095D01*
X163604761Y-136250476D01*
X163652380Y-136155238D01*
X163652380Y-135964761D01*
X163604761Y-135869523D01*
X163557142Y-135821904D01*
X163461904Y-135774285D01*
X163271428Y-135774285D01*
X163176190Y-135821904D01*
X163128571Y-135869523D01*
X163080952Y-135964761D01*
X185543809Y-140836190D02*
X185543809Y-141312380D01*
X185210476Y-140312380D02*
X185543809Y-140836190D01*
X185877142Y-140312380D01*
X186162857Y-140407619D02*
X186210476Y-140360000D01*
X186305714Y-140312380D01*
X186543809Y-140312380D01*
X186639047Y-140360000D01*
X186686666Y-140407619D01*
X186734285Y-140502857D01*
X186734285Y-140598095D01*
X186686666Y-140740952D01*
X186115238Y-141312380D01*
X186734285Y-141312380D01*
X171116190Y-146196190D02*
X171592380Y-146196190D01*
X170592380Y-146529523D02*
X171116190Y-146196190D01*
X170592380Y-145862857D01*
X171592380Y-145005714D02*
X171592380Y-145577142D01*
X171592380Y-145291428D02*
X170592380Y-145291428D01*
X170735238Y-145386666D01*
X170830476Y-145481904D01*
X170878095Y-145577142D01*
X163913333Y-138992380D02*
X163580000Y-138516190D01*
X163341904Y-138992380D02*
X163341904Y-137992380D01*
X163722857Y-137992380D01*
X163818095Y-138040000D01*
X163865714Y-138087619D01*
X163913333Y-138182857D01*
X163913333Y-138325714D01*
X163865714Y-138420952D01*
X163818095Y-138468571D01*
X163722857Y-138516190D01*
X163341904Y-138516190D01*
X164865714Y-138992380D02*
X164294285Y-138992380D01*
X164580000Y-138992380D02*
X164580000Y-137992380D01*
X164484761Y-138135238D01*
X164389523Y-138230476D01*
X164294285Y-138278095D01*
X160058095Y-141952380D02*
X160058095Y-142761904D01*
X160105714Y-142857142D01*
X160153333Y-142904761D01*
X160248571Y-142952380D01*
X160439047Y-142952380D01*
X160534285Y-142904761D01*
X160581904Y-142857142D01*
X160629523Y-142761904D01*
X160629523Y-141952380D01*
X161058095Y-142047619D02*
X161105714Y-142000000D01*
X161200952Y-141952380D01*
X161439047Y-141952380D01*
X161534285Y-142000000D01*
X161581904Y-142047619D01*
X161629523Y-142142857D01*
X161629523Y-142238095D01*
X161581904Y-142380952D01*
X161010476Y-142952380D01*
X161629523Y-142952380D01*
X165427142Y-145366666D02*
X165474761Y-145414285D01*
X165522380Y-145557142D01*
X165522380Y-145652380D01*
X165474761Y-145795238D01*
X165379523Y-145890476D01*
X165284285Y-145938095D01*
X165093809Y-145985714D01*
X164950952Y-145985714D01*
X164760476Y-145938095D01*
X164665238Y-145890476D01*
X164570000Y-145795238D01*
X164522380Y-145652380D01*
X164522380Y-145557142D01*
X164570000Y-145414285D01*
X164617619Y-145366666D01*
X164522380Y-145033333D02*
X164522380Y-144366666D01*
X165522380Y-144795238D01*
X157693333Y-143327142D02*
X157645714Y-143374761D01*
X157502857Y-143422380D01*
X157407619Y-143422380D01*
X157264761Y-143374761D01*
X157169523Y-143279523D01*
X157121904Y-143184285D01*
X157074285Y-142993809D01*
X157074285Y-142850952D01*
X157121904Y-142660476D01*
X157169523Y-142565238D01*
X157264761Y-142470000D01*
X157407619Y-142422380D01*
X157502857Y-142422380D01*
X157645714Y-142470000D01*
X157693333Y-142517619D01*
X158550476Y-142422380D02*
X158360000Y-142422380D01*
X158264761Y-142470000D01*
X158217142Y-142517619D01*
X158121904Y-142660476D01*
X158074285Y-142850952D01*
X158074285Y-143231904D01*
X158121904Y-143327142D01*
X158169523Y-143374761D01*
X158264761Y-143422380D01*
X158455238Y-143422380D01*
X158550476Y-143374761D01*
X158598095Y-143327142D01*
X158645714Y-143231904D01*
X158645714Y-142993809D01*
X158598095Y-142898571D01*
X158550476Y-142850952D01*
X158455238Y-142803333D01*
X158264761Y-142803333D01*
X158169523Y-142850952D01*
X158121904Y-142898571D01*
X158074285Y-142993809D01*
X178873333Y-135147142D02*
X178825714Y-135194761D01*
X178682857Y-135242380D01*
X178587619Y-135242380D01*
X178444761Y-135194761D01*
X178349523Y-135099523D01*
X178301904Y-135004285D01*
X178254285Y-134813809D01*
X178254285Y-134670952D01*
X178301904Y-134480476D01*
X178349523Y-134385238D01*
X178444761Y-134290000D01*
X178587619Y-134242380D01*
X178682857Y-134242380D01*
X178825714Y-134290000D01*
X178873333Y-134337619D01*
X179778095Y-134242380D02*
X179301904Y-134242380D01*
X179254285Y-134718571D01*
X179301904Y-134670952D01*
X179397142Y-134623333D01*
X179635238Y-134623333D01*
X179730476Y-134670952D01*
X179778095Y-134718571D01*
X179825714Y-134813809D01*
X179825714Y-135051904D01*
X179778095Y-135147142D01*
X179730476Y-135194761D01*
X179635238Y-135242380D01*
X179397142Y-135242380D01*
X179301904Y-135194761D01*
X179254285Y-135147142D01*
X183437142Y-136996666D02*
X183484761Y-137044285D01*
X183532380Y-137187142D01*
X183532380Y-137282380D01*
X183484761Y-137425238D01*
X183389523Y-137520476D01*
X183294285Y-137568095D01*
X183103809Y-137615714D01*
X182960952Y-137615714D01*
X182770476Y-137568095D01*
X182675238Y-137520476D01*
X182580000Y-137425238D01*
X182532380Y-137282380D01*
X182532380Y-137187142D01*
X182580000Y-137044285D01*
X182627619Y-136996666D01*
X182865714Y-136139523D02*
X183532380Y-136139523D01*
X182484761Y-136377619D02*
X183199047Y-136615714D01*
X183199047Y-135996666D01*
X174833333Y-144417142D02*
X174785714Y-144464761D01*
X174642857Y-144512380D01*
X174547619Y-144512380D01*
X174404761Y-144464761D01*
X174309523Y-144369523D01*
X174261904Y-144274285D01*
X174214285Y-144083809D01*
X174214285Y-143940952D01*
X174261904Y-143750476D01*
X174309523Y-143655238D01*
X174404761Y-143560000D01*
X174547619Y-143512380D01*
X174642857Y-143512380D01*
X174785714Y-143560000D01*
X174833333Y-143607619D01*
X175166666Y-143512380D02*
X175785714Y-143512380D01*
X175452380Y-143893333D01*
X175595238Y-143893333D01*
X175690476Y-143940952D01*
X175738095Y-143988571D01*
X175785714Y-144083809D01*
X175785714Y-144321904D01*
X175738095Y-144417142D01*
X175690476Y-144464761D01*
X175595238Y-144512380D01*
X175309523Y-144512380D01*
X175214285Y-144464761D01*
X175166666Y-144417142D01*
X176653333Y-144287142D02*
X176605714Y-144334761D01*
X176462857Y-144382380D01*
X176367619Y-144382380D01*
X176224761Y-144334761D01*
X176129523Y-144239523D01*
X176081904Y-144144285D01*
X176034285Y-143953809D01*
X176034285Y-143810952D01*
X176081904Y-143620476D01*
X176129523Y-143525238D01*
X176224761Y-143430000D01*
X176367619Y-143382380D01*
X176462857Y-143382380D01*
X176605714Y-143430000D01*
X176653333Y-143477619D01*
X177034285Y-143477619D02*
X177081904Y-143430000D01*
X177177142Y-143382380D01*
X177415238Y-143382380D01*
X177510476Y-143430000D01*
X177558095Y-143477619D01*
X177605714Y-143572857D01*
X177605714Y-143668095D01*
X177558095Y-143810952D01*
X176986666Y-144382380D01*
X177605714Y-144382380D01*
X178523333Y-144277142D02*
X178475714Y-144324761D01*
X178332857Y-144372380D01*
X178237619Y-144372380D01*
X178094761Y-144324761D01*
X177999523Y-144229523D01*
X177951904Y-144134285D01*
X177904285Y-143943809D01*
X177904285Y-143800952D01*
X177951904Y-143610476D01*
X177999523Y-143515238D01*
X178094761Y-143420000D01*
X178237619Y-143372380D01*
X178332857Y-143372380D01*
X178475714Y-143420000D01*
X178523333Y-143467619D01*
X179475714Y-144372380D02*
X178904285Y-144372380D01*
X179190000Y-144372380D02*
X179190000Y-143372380D01*
X179094761Y-143515238D01*
X178999523Y-143610476D01*
X178904285Y-143658095D01*
X148976666Y-144172380D02*
X148976666Y-144886666D01*
X148929047Y-145029523D01*
X148833809Y-145124761D01*
X148690952Y-145172380D01*
X148595714Y-145172380D01*
X149976666Y-145172380D02*
X149405238Y-145172380D01*
X149690952Y-145172380D02*
X149690952Y-144172380D01*
X149595714Y-144315238D01*
X149500476Y-144410476D01*
X149405238Y-144458095D01*
M02*
