G04 #@! TF.GenerationSoftware,KiCad,Pcbnew,5.1.2-f72e74a~84~ubuntu19.04.1*
G04 #@! TF.CreationDate,2019-05-31T15:23:29+02:00*
G04 #@! TF.ProjectId,efr32_feather,65667233-325f-4666-9561-746865722e6b,rev?*
G04 #@! TF.SameCoordinates,Original*
G04 #@! TF.FileFunction,Legend,Top*
G04 #@! TF.FilePolarity,Positive*
%FSLAX46Y46*%
G04 Gerber Fmt 4.6, Leading zero omitted, Abs format (unit mm)*
G04 Created by KiCad (PCBNEW 5.1.2-f72e74a~84~ubuntu19.04.1) date 2019-05-31 15:23:29*
%MOMM*%
%LPD*%
G04 APERTURE LIST*
%ADD10C,0.150000*%
%ADD11C,0.120000*%
G04 APERTURE END LIST*
D10*
X191042656Y-148637106D02*
X190470236Y-148536091D01*
X190638595Y-149041167D02*
X189931488Y-148334061D01*
X190200862Y-148064687D01*
X190301877Y-148031015D01*
X190369221Y-148031015D01*
X190470236Y-148064687D01*
X190571251Y-148165702D01*
X190604923Y-148266717D01*
X190604923Y-148334061D01*
X190571251Y-148435076D01*
X190301877Y-148704450D01*
X191278358Y-148334061D02*
X191413045Y-148266717D01*
X191581404Y-148098358D01*
X191615076Y-147997343D01*
X191615076Y-147930000D01*
X191581404Y-147828984D01*
X191514061Y-147761641D01*
X191413045Y-147727969D01*
X191345702Y-147727969D01*
X191244687Y-147761641D01*
X191076328Y-147862656D01*
X190975312Y-147896328D01*
X190907969Y-147896328D01*
X190806954Y-147862656D01*
X190739610Y-147795312D01*
X190705938Y-147694297D01*
X190705938Y-147626954D01*
X190739610Y-147525938D01*
X190907969Y-147357580D01*
X191042656Y-147290236D01*
X191211015Y-147054534D02*
X191615076Y-146650473D01*
X192120152Y-147559610D02*
X191413045Y-146852503D01*
X187068950Y-148696599D02*
X187506683Y-148258866D01*
X187540355Y-148763942D01*
X187641370Y-148662927D01*
X187742385Y-148629255D01*
X187809729Y-148629255D01*
X187910744Y-148662927D01*
X188079103Y-148831286D01*
X188112774Y-148932301D01*
X188112774Y-148999644D01*
X188079103Y-149100660D01*
X187877072Y-149302690D01*
X187776057Y-149336362D01*
X187708713Y-149336362D01*
X188449492Y-148595583D02*
X188516835Y-148595583D01*
X188516835Y-148662927D01*
X188449492Y-148662927D01*
X188449492Y-148595583D01*
X188516835Y-148662927D01*
X188079103Y-147686446D02*
X188516835Y-147248713D01*
X188550507Y-147753790D01*
X188651522Y-147652774D01*
X188752538Y-147619103D01*
X188819881Y-147619103D01*
X188920896Y-147652774D01*
X189089255Y-147821133D01*
X189122927Y-147922148D01*
X189122927Y-147989492D01*
X189089255Y-148090507D01*
X188887225Y-148292538D01*
X188786209Y-148326209D01*
X188718866Y-148326209D01*
X188718866Y-147046683D02*
X189661675Y-147518087D01*
X189190270Y-146575278D01*
X182367698Y-148635194D02*
X182266683Y-148668866D01*
X182165668Y-148769881D01*
X182098324Y-148904568D01*
X182098324Y-149039255D01*
X182131996Y-149140270D01*
X182233011Y-149308629D01*
X182334026Y-149409644D01*
X182502385Y-149510660D01*
X182603400Y-149544331D01*
X182738087Y-149544331D01*
X182872774Y-149476988D01*
X182940118Y-149409644D01*
X183007461Y-149274957D01*
X183007461Y-149207614D01*
X182771759Y-148971912D01*
X182637072Y-149106599D01*
X183377851Y-148971912D02*
X182670744Y-148264805D01*
X183781912Y-148567851D01*
X183074805Y-147860744D01*
X184118629Y-148231133D02*
X183411522Y-147524026D01*
X183579881Y-147355668D01*
X183714568Y-147288324D01*
X183849255Y-147288324D01*
X183950270Y-147321996D01*
X184118629Y-147423011D01*
X184219644Y-147524026D01*
X184320660Y-147692385D01*
X184354331Y-147793400D01*
X184354331Y-147928087D01*
X184286988Y-148062774D01*
X184118629Y-148231133D01*
X180542774Y-148702927D02*
X180879492Y-148366209D01*
X180677461Y-148972301D02*
X180206057Y-148029492D01*
X181148866Y-148500896D01*
X180812148Y-147423400D02*
X180879492Y-147356057D01*
X180980507Y-147322385D01*
X181047851Y-147322385D01*
X181148866Y-147356057D01*
X181317225Y-147457072D01*
X181485583Y-147625431D01*
X181586599Y-147793790D01*
X181620270Y-147894805D01*
X181620270Y-147962148D01*
X181586599Y-148063164D01*
X181519255Y-148130507D01*
X181418240Y-148164179D01*
X181350896Y-148164179D01*
X181249881Y-148130507D01*
X181081522Y-148029492D01*
X180913164Y-147861133D01*
X180812148Y-147692774D01*
X180778477Y-147591759D01*
X180778477Y-147524416D01*
X180812148Y-147423400D01*
X178262774Y-148642927D02*
X178599492Y-148306209D01*
X178397461Y-148912301D02*
X177926057Y-147969492D01*
X178868866Y-148440896D01*
X179474957Y-147834805D02*
X179070896Y-148238866D01*
X179272927Y-148036835D02*
X178565820Y-147329729D01*
X178599492Y-147498087D01*
X178599492Y-147632774D01*
X178565820Y-147733790D01*
X175622774Y-148792927D02*
X175959492Y-148456209D01*
X175757461Y-149062301D02*
X175286057Y-148119492D01*
X176228866Y-148590896D01*
X175791133Y-147749103D02*
X175791133Y-147681759D01*
X175824805Y-147580744D01*
X175993164Y-147412385D01*
X176094179Y-147378713D01*
X176161522Y-147378713D01*
X176262538Y-147412385D01*
X176329881Y-147479729D01*
X176397225Y-147614416D01*
X176397225Y-148422538D01*
X176834957Y-147984805D01*
X172902774Y-148852927D02*
X173239492Y-148516209D01*
X173037461Y-149122301D02*
X172566057Y-148179492D01*
X173508866Y-148650896D01*
X172970118Y-147775431D02*
X173407851Y-147337698D01*
X173441522Y-147842774D01*
X173542538Y-147741759D01*
X173643553Y-147708087D01*
X173710896Y-147708087D01*
X173811912Y-147741759D01*
X173980270Y-147910118D01*
X174013942Y-148011133D01*
X174013942Y-148078477D01*
X173980270Y-148179492D01*
X173778240Y-148381522D01*
X173677225Y-148415194D01*
X173609881Y-148415194D01*
X170192774Y-148772927D02*
X170529492Y-148436209D01*
X170327461Y-149042301D02*
X169856057Y-148099492D01*
X170798866Y-148570896D01*
X170866209Y-147560744D02*
X171337614Y-148032148D01*
X170428477Y-147459729D02*
X170765194Y-148133164D01*
X171202927Y-147695431D01*
X167892774Y-148772927D02*
X168229492Y-148436209D01*
X168027461Y-149042301D02*
X167556057Y-148099492D01*
X168498866Y-148570896D01*
X168364179Y-147291370D02*
X168027461Y-147628087D01*
X168330507Y-147998477D01*
X168330507Y-147931133D01*
X168364179Y-147830118D01*
X168532538Y-147661759D01*
X168633553Y-147628087D01*
X168700896Y-147628087D01*
X168801912Y-147661759D01*
X168970270Y-147830118D01*
X169003942Y-147931133D01*
X169003942Y-147998477D01*
X168970270Y-148099492D01*
X168801912Y-148267851D01*
X168700896Y-148301522D01*
X168633553Y-148301522D01*
X164957072Y-149245347D02*
X165091759Y-149178003D01*
X165260118Y-149009644D01*
X165293790Y-148908629D01*
X165293790Y-148841286D01*
X165260118Y-148740270D01*
X165192774Y-148672927D01*
X165091759Y-148639255D01*
X165024416Y-148639255D01*
X164923400Y-148672927D01*
X164755042Y-148773942D01*
X164654026Y-148807614D01*
X164586683Y-148807614D01*
X164485668Y-148773942D01*
X164418324Y-148706599D01*
X164384652Y-148605583D01*
X164384652Y-148538240D01*
X164418324Y-148437225D01*
X164586683Y-148268866D01*
X164721370Y-148201522D01*
X166034568Y-148100507D02*
X166034568Y-148167851D01*
X165967225Y-148302538D01*
X165899881Y-148369881D01*
X165765194Y-148437225D01*
X165630507Y-148437225D01*
X165529492Y-148403553D01*
X165361133Y-148302538D01*
X165260118Y-148201522D01*
X165159103Y-148033164D01*
X165125431Y-147932148D01*
X165125431Y-147797461D01*
X165192774Y-147662774D01*
X165260118Y-147595431D01*
X165394805Y-147528087D01*
X165462148Y-147528087D01*
X166404957Y-147864805D02*
X165697851Y-147157698D01*
X166809018Y-147460744D02*
X166101912Y-147359729D01*
X166101912Y-146753637D02*
X166101912Y-147561759D01*
X162268713Y-149581049D02*
X161561607Y-148873942D01*
X162302385Y-149143316D01*
X162033011Y-148402538D01*
X162740118Y-149109644D01*
X162504416Y-147931133D02*
X162639103Y-147796446D01*
X162740118Y-147762774D01*
X162874805Y-147762774D01*
X163043164Y-147863790D01*
X163278866Y-148099492D01*
X163379881Y-148267851D01*
X163379881Y-148402538D01*
X163346209Y-148503553D01*
X163211522Y-148638240D01*
X163110507Y-148671912D01*
X162975820Y-148671912D01*
X162807461Y-148570896D01*
X162571759Y-148335194D01*
X162470744Y-148166835D01*
X162470744Y-148032148D01*
X162504416Y-147931133D01*
X163750270Y-148032148D02*
X163884957Y-147964805D01*
X164053316Y-147796446D01*
X164086988Y-147695431D01*
X164086988Y-147628087D01*
X164053316Y-147527072D01*
X163985973Y-147459729D01*
X163884957Y-147426057D01*
X163817614Y-147426057D01*
X163716599Y-147459729D01*
X163548240Y-147560744D01*
X163447225Y-147594416D01*
X163379881Y-147594416D01*
X163278866Y-147560744D01*
X163211522Y-147493400D01*
X163177851Y-147392385D01*
X163177851Y-147325042D01*
X163211522Y-147224026D01*
X163379881Y-147055668D01*
X163514568Y-146988324D01*
X164491049Y-147358713D02*
X163783942Y-146651607D01*
X159708713Y-149701049D02*
X159001607Y-148993942D01*
X159742385Y-149263316D01*
X159473011Y-148522538D01*
X160180118Y-149229644D01*
X160516835Y-148892927D02*
X159809729Y-148185820D01*
X160786209Y-148556209D02*
X160920896Y-148488866D01*
X161089255Y-148320507D01*
X161122927Y-148219492D01*
X161122927Y-148152148D01*
X161089255Y-148051133D01*
X161021912Y-147983790D01*
X160920896Y-147950118D01*
X160853553Y-147950118D01*
X160752538Y-147983790D01*
X160584179Y-148084805D01*
X160483164Y-148118477D01*
X160415820Y-148118477D01*
X160314805Y-148084805D01*
X160247461Y-148017461D01*
X160213790Y-147916446D01*
X160213790Y-147849103D01*
X160247461Y-147748087D01*
X160415820Y-147579729D01*
X160550507Y-147512385D01*
X160954568Y-147040981D02*
X161089255Y-146906294D01*
X161190270Y-146872622D01*
X161324957Y-146872622D01*
X161493316Y-146973637D01*
X161729018Y-147209339D01*
X161830034Y-147377698D01*
X161830034Y-147512385D01*
X161796362Y-147613400D01*
X161661675Y-147748087D01*
X161560660Y-147781759D01*
X161425973Y-147781759D01*
X161257614Y-147680744D01*
X161021912Y-147445042D01*
X160920896Y-147276683D01*
X160920896Y-147141996D01*
X160954568Y-147040981D01*
X158342030Y-148637732D02*
X157769610Y-148536717D01*
X157937969Y-149041793D02*
X157230862Y-148334687D01*
X157500236Y-148065312D01*
X157601251Y-148031641D01*
X157668595Y-148031641D01*
X157769610Y-148065312D01*
X157870625Y-148166328D01*
X157904297Y-148267343D01*
X157904297Y-148334687D01*
X157870625Y-148435702D01*
X157601251Y-148705076D01*
X157870625Y-147694923D02*
X159049137Y-147930625D01*
X158342030Y-147223519D02*
X158577732Y-148402030D01*
X154614026Y-148331522D02*
X155018087Y-147927461D01*
X155523164Y-148836599D02*
X154816057Y-148129492D01*
X155186446Y-147759103D02*
X156364957Y-147994805D01*
X155657851Y-147287698D02*
X155893553Y-148466209D01*
X152017698Y-148335194D02*
X151916683Y-148368866D01*
X151815668Y-148469881D01*
X151748324Y-148604568D01*
X151748324Y-148739255D01*
X151781996Y-148840270D01*
X151883011Y-149008629D01*
X151984026Y-149109644D01*
X152152385Y-149210660D01*
X152253400Y-149244331D01*
X152388087Y-149244331D01*
X152522774Y-149176988D01*
X152590118Y-149109644D01*
X152657461Y-148974957D01*
X152657461Y-148907614D01*
X152421759Y-148671912D01*
X152287072Y-148806599D01*
X153027851Y-148671912D02*
X152320744Y-147964805D01*
X153431912Y-148267851D01*
X152724805Y-147560744D01*
X153768629Y-147931133D02*
X153061522Y-147224026D01*
X153229881Y-147055668D01*
X153364568Y-146988324D01*
X153499255Y-146988324D01*
X153600270Y-147021996D01*
X153768629Y-147123011D01*
X153869644Y-147224026D01*
X153970660Y-147392385D01*
X154004331Y-147493400D01*
X154004331Y-147628087D01*
X153936988Y-147762774D01*
X153768629Y-147931133D01*
X190737580Y-132964839D02*
X190872267Y-132897496D01*
X191040625Y-132729137D01*
X191074297Y-132628122D01*
X191074297Y-132560778D01*
X191040625Y-132459763D01*
X190973282Y-132392419D01*
X190872267Y-132358748D01*
X190804923Y-132358748D01*
X190703908Y-132392419D01*
X190535549Y-132493435D01*
X190434534Y-132527106D01*
X190367190Y-132527106D01*
X190266175Y-132493435D01*
X190198832Y-132426091D01*
X190165160Y-132325076D01*
X190165160Y-132257732D01*
X190198832Y-132156717D01*
X190367190Y-131988358D01*
X190501877Y-131921015D01*
X191478358Y-132291404D02*
X190771251Y-131584297D01*
X190939610Y-131415938D01*
X191074297Y-131348595D01*
X191208984Y-131348595D01*
X191310000Y-131382267D01*
X191478358Y-131483282D01*
X191579374Y-131584297D01*
X191680389Y-131752656D01*
X191714061Y-131853671D01*
X191714061Y-131988358D01*
X191646717Y-132123045D01*
X191478358Y-132291404D01*
X191949763Y-131415938D02*
X192286480Y-131079221D01*
X192084450Y-131685312D02*
X191613045Y-130742503D01*
X192555854Y-131213908D01*
X188114416Y-132688003D02*
X188249103Y-132620660D01*
X188417461Y-132452301D01*
X188451133Y-132351286D01*
X188451133Y-132283942D01*
X188417461Y-132182927D01*
X188350118Y-132115583D01*
X188249103Y-132081912D01*
X188181759Y-132081912D01*
X188080744Y-132115583D01*
X187912385Y-132216599D01*
X187811370Y-132250270D01*
X187744026Y-132250270D01*
X187643011Y-132216599D01*
X187575668Y-132149255D01*
X187541996Y-132048240D01*
X187541996Y-131980896D01*
X187575668Y-131879881D01*
X187744026Y-131711522D01*
X187878713Y-131644179D01*
X189191912Y-131543164D02*
X189191912Y-131610507D01*
X189124568Y-131745194D01*
X189057225Y-131812538D01*
X188922538Y-131879881D01*
X188787851Y-131879881D01*
X188686835Y-131846209D01*
X188518477Y-131745194D01*
X188417461Y-131644179D01*
X188316446Y-131475820D01*
X188282774Y-131374805D01*
X188282774Y-131240118D01*
X188350118Y-131105431D01*
X188417461Y-131038087D01*
X188552148Y-130970744D01*
X188619492Y-130970744D01*
X189899018Y-130970744D02*
X189562301Y-131307461D01*
X188855194Y-130600355D01*
X186057969Y-132421793D02*
X185350862Y-131714687D01*
X185519221Y-131546328D01*
X185653908Y-131478984D01*
X185788595Y-131478984D01*
X185889610Y-131512656D01*
X186057969Y-131613671D01*
X186158984Y-131714687D01*
X186260000Y-131883045D01*
X186293671Y-131984061D01*
X186293671Y-132118748D01*
X186226328Y-132253435D01*
X186057969Y-132421793D01*
X186394687Y-130670862D02*
X186057969Y-131007580D01*
X186361015Y-131377969D01*
X186361015Y-131310625D01*
X186394687Y-131209610D01*
X186563045Y-131041251D01*
X186664061Y-131007580D01*
X186731404Y-131007580D01*
X186832419Y-131041251D01*
X187000778Y-131209610D01*
X187034450Y-131310625D01*
X187034450Y-131377969D01*
X187000778Y-131478984D01*
X186832419Y-131647343D01*
X186731404Y-131681015D01*
X186664061Y-131681015D01*
X183407969Y-132431793D02*
X182700862Y-131724687D01*
X182869221Y-131556328D01*
X183003908Y-131488984D01*
X183138595Y-131488984D01*
X183239610Y-131522656D01*
X183407969Y-131623671D01*
X183508984Y-131724687D01*
X183610000Y-131893045D01*
X183643671Y-131994061D01*
X183643671Y-132128748D01*
X183576328Y-132263435D01*
X183407969Y-132431793D01*
X183711015Y-130714534D02*
X183576328Y-130849221D01*
X183542656Y-130950236D01*
X183542656Y-131017580D01*
X183576328Y-131185938D01*
X183677343Y-131354297D01*
X183946717Y-131623671D01*
X184047732Y-131657343D01*
X184115076Y-131657343D01*
X184216091Y-131623671D01*
X184350778Y-131488984D01*
X184384450Y-131387969D01*
X184384450Y-131320625D01*
X184350778Y-131219610D01*
X184182419Y-131051251D01*
X184081404Y-131017580D01*
X184014061Y-131017580D01*
X183913045Y-131051251D01*
X183778358Y-131185938D01*
X183744687Y-131286954D01*
X183744687Y-131354297D01*
X183778358Y-131455312D01*
X180897969Y-132421793D02*
X180190862Y-131714687D01*
X180359221Y-131546328D01*
X180493908Y-131478984D01*
X180628595Y-131478984D01*
X180729610Y-131512656D01*
X180897969Y-131613671D01*
X180998984Y-131714687D01*
X181100000Y-131883045D01*
X181133671Y-131984061D01*
X181133671Y-132118748D01*
X181066328Y-132253435D01*
X180897969Y-132421793D01*
X181638748Y-131681015D02*
X181773435Y-131546328D01*
X181807106Y-131445312D01*
X181807106Y-131377969D01*
X181773435Y-131209610D01*
X181672419Y-131041251D01*
X181403045Y-130771877D01*
X181302030Y-130738206D01*
X181234687Y-130738206D01*
X181133671Y-130771877D01*
X180998984Y-130906564D01*
X180965312Y-131007580D01*
X180965312Y-131074923D01*
X180998984Y-131175938D01*
X181167343Y-131344297D01*
X181268358Y-131377969D01*
X181335702Y-131377969D01*
X181436717Y-131344297D01*
X181571404Y-131209610D01*
X181605076Y-131108595D01*
X181605076Y-131041251D01*
X181571404Y-130940236D01*
X178301251Y-132688511D02*
X177594145Y-131981404D01*
X177762503Y-131813045D01*
X177897190Y-131745702D01*
X178031877Y-131745702D01*
X178132893Y-131779374D01*
X178301251Y-131880389D01*
X178402267Y-131981404D01*
X178503282Y-132149763D01*
X178536954Y-132250778D01*
X178536954Y-132385465D01*
X178469610Y-132520152D01*
X178301251Y-132688511D01*
X179378748Y-131611015D02*
X178974687Y-132015076D01*
X179176717Y-131813045D02*
X178469610Y-131105938D01*
X178503282Y-131274297D01*
X178503282Y-131408984D01*
X178469610Y-131510000D01*
X179109374Y-130466175D02*
X179176717Y-130398832D01*
X179277732Y-130365160D01*
X179345076Y-130365160D01*
X179446091Y-130398832D01*
X179614450Y-130499847D01*
X179782809Y-130668206D01*
X179883824Y-130836564D01*
X179917496Y-130937580D01*
X179917496Y-131004923D01*
X179883824Y-131105938D01*
X179816480Y-131173282D01*
X179715465Y-131206954D01*
X179648122Y-131206954D01*
X179547106Y-131173282D01*
X179378748Y-131072267D01*
X179210389Y-130903908D01*
X179109374Y-130735549D01*
X179075702Y-130634534D01*
X179075702Y-130567190D01*
X179109374Y-130466175D01*
X175381251Y-133058511D02*
X174674145Y-132351404D01*
X174842503Y-132183045D01*
X174977190Y-132115702D01*
X175111877Y-132115702D01*
X175212893Y-132149374D01*
X175381251Y-132250389D01*
X175482267Y-132351404D01*
X175583282Y-132519763D01*
X175616954Y-132620778D01*
X175616954Y-132755465D01*
X175549610Y-132890152D01*
X175381251Y-133058511D01*
X176458748Y-131981015D02*
X176054687Y-132385076D01*
X176256717Y-132183045D02*
X175549610Y-131475938D01*
X175583282Y-131644297D01*
X175583282Y-131778984D01*
X175549610Y-131880000D01*
X177132183Y-131307580D02*
X176728122Y-131711641D01*
X176930152Y-131509610D02*
X176223045Y-130802503D01*
X176256717Y-130970862D01*
X176256717Y-131105549D01*
X176223045Y-131206564D01*
X172851251Y-132988511D02*
X172144145Y-132281404D01*
X172312503Y-132113045D01*
X172447190Y-132045702D01*
X172581877Y-132045702D01*
X172682893Y-132079374D01*
X172851251Y-132180389D01*
X172952267Y-132281404D01*
X173053282Y-132449763D01*
X173086954Y-132550778D01*
X173086954Y-132685465D01*
X173019610Y-132820152D01*
X172851251Y-132988511D01*
X173928748Y-131911015D02*
X173524687Y-132315076D01*
X173726717Y-132113045D02*
X173019610Y-131405938D01*
X173053282Y-131574297D01*
X173053282Y-131708984D01*
X173019610Y-131810000D01*
X173558358Y-131001877D02*
X173558358Y-130934534D01*
X173592030Y-130833519D01*
X173760389Y-130665160D01*
X173861404Y-130631488D01*
X173928748Y-130631488D01*
X174029763Y-130665160D01*
X174097106Y-130732503D01*
X174164450Y-130867190D01*
X174164450Y-131675312D01*
X174602183Y-131237580D01*
X170301251Y-133038511D02*
X169594145Y-132331404D01*
X169762503Y-132163045D01*
X169897190Y-132095702D01*
X170031877Y-132095702D01*
X170132893Y-132129374D01*
X170301251Y-132230389D01*
X170402267Y-132331404D01*
X170503282Y-132499763D01*
X170536954Y-132600778D01*
X170536954Y-132735465D01*
X170469610Y-132870152D01*
X170301251Y-133038511D01*
X171378748Y-131961015D02*
X170974687Y-132365076D01*
X171176717Y-132163045D02*
X170469610Y-131455938D01*
X170503282Y-131624297D01*
X170503282Y-131758984D01*
X170469610Y-131860000D01*
X170907343Y-131018206D02*
X171345076Y-130580473D01*
X171378748Y-131085549D01*
X171479763Y-130984534D01*
X171580778Y-130950862D01*
X171648122Y-130950862D01*
X171749137Y-130984534D01*
X171917496Y-131152893D01*
X171951167Y-131253908D01*
X171951167Y-131321251D01*
X171917496Y-131422267D01*
X171715465Y-131624297D01*
X171614450Y-131657969D01*
X171547106Y-131657969D01*
X166746412Y-132769137D02*
X167689221Y-133240541D01*
X167217816Y-132297732D01*
X168025938Y-132163045D02*
X168160625Y-132095702D01*
X168227969Y-132095702D01*
X168328984Y-132129374D01*
X168430000Y-132230389D01*
X168463671Y-132331404D01*
X168463671Y-132398748D01*
X168430000Y-132499763D01*
X168160625Y-132769137D01*
X167453519Y-132062030D01*
X167689221Y-131826328D01*
X167790236Y-131792656D01*
X167857580Y-131792656D01*
X167958595Y-131826328D01*
X168025938Y-131893671D01*
X168059610Y-131994687D01*
X168059610Y-132062030D01*
X168025938Y-132163045D01*
X167790236Y-132398748D01*
X168160625Y-131354923D02*
X168733045Y-131927343D01*
X168834061Y-131961015D01*
X168901404Y-131961015D01*
X169002419Y-131927343D01*
X169137106Y-131792656D01*
X169170778Y-131691641D01*
X169170778Y-131624297D01*
X169137106Y-131523282D01*
X168564687Y-130950862D01*
X169541167Y-131321251D02*
X169675854Y-131253908D01*
X169844213Y-131085549D01*
X169877885Y-130984534D01*
X169877885Y-130917190D01*
X169844213Y-130816175D01*
X169776870Y-130748832D01*
X169675854Y-130715160D01*
X169608511Y-130715160D01*
X169507496Y-130748832D01*
X169339137Y-130849847D01*
X169238122Y-130883519D01*
X169170778Y-130883519D01*
X169069763Y-130849847D01*
X169002419Y-130782503D01*
X168968748Y-130681488D01*
X168968748Y-130614145D01*
X169002419Y-130513129D01*
X169170778Y-130344771D01*
X169305465Y-130277427D01*
X165457580Y-132001404D02*
X165693282Y-131765702D01*
X166164687Y-132035076D02*
X165827969Y-132371793D01*
X165120862Y-131664687D01*
X165457580Y-131327969D01*
X166467732Y-131732030D02*
X165760625Y-131024923D01*
X166871793Y-131327969D01*
X166164687Y-130620862D01*
X162668206Y-132360778D02*
X162802893Y-132293435D01*
X162870236Y-132293435D01*
X162971251Y-132327106D01*
X163072267Y-132428122D01*
X163105938Y-132529137D01*
X163105938Y-132596480D01*
X163072267Y-132697496D01*
X162802893Y-132966870D01*
X162095786Y-132259763D01*
X162331488Y-132024061D01*
X162432503Y-131990389D01*
X162499847Y-131990389D01*
X162600862Y-132024061D01*
X162668206Y-132091404D01*
X162701877Y-132192419D01*
X162701877Y-132259763D01*
X162668206Y-132360778D01*
X162432503Y-132596480D01*
X163274297Y-132091404D02*
X163611015Y-131754687D01*
X163408984Y-132360778D02*
X162937580Y-131417969D01*
X163880389Y-131889374D01*
X163307969Y-131047580D02*
X163712030Y-130643519D01*
X164217106Y-131552656D02*
X163510000Y-130845549D01*
X163846717Y-130508832D02*
X164250778Y-130104771D01*
X164755854Y-131013908D02*
X164048748Y-130306801D01*
X148066190Y-146132380D02*
X148066190Y-145608571D01*
X148018571Y-145513333D01*
X147923333Y-145465714D01*
X147732857Y-145465714D01*
X147637619Y-145513333D01*
X148066190Y-146084761D02*
X147970952Y-146132380D01*
X147732857Y-146132380D01*
X147637619Y-146084761D01*
X147590000Y-145989523D01*
X147590000Y-145894285D01*
X147637619Y-145799047D01*
X147732857Y-145751428D01*
X147970952Y-145751428D01*
X148066190Y-145703809D01*
X148304285Y-146227619D02*
X149066190Y-146227619D01*
X149209047Y-145465714D02*
X149399523Y-146132380D01*
X149590000Y-145656190D01*
X149780476Y-146132380D01*
X149970952Y-145465714D01*
X150732857Y-146084761D02*
X150637619Y-146132380D01*
X150447142Y-146132380D01*
X150351904Y-146084761D01*
X150304285Y-145989523D01*
X150304285Y-145608571D01*
X150351904Y-145513333D01*
X150447142Y-145465714D01*
X150637619Y-145465714D01*
X150732857Y-145513333D01*
X150780476Y-145608571D01*
X150780476Y-145703809D01*
X150304285Y-145799047D01*
X151161428Y-146084761D02*
X151256666Y-146132380D01*
X151447142Y-146132380D01*
X151542380Y-146084761D01*
X151590000Y-145989523D01*
X151590000Y-145941904D01*
X151542380Y-145846666D01*
X151447142Y-145799047D01*
X151304285Y-145799047D01*
X151209047Y-145751428D01*
X151161428Y-145656190D01*
X151161428Y-145608571D01*
X151209047Y-145513333D01*
X151304285Y-145465714D01*
X151447142Y-145465714D01*
X151542380Y-145513333D01*
X151875714Y-145465714D02*
X152256666Y-145465714D01*
X152018571Y-145132380D02*
X152018571Y-145989523D01*
X152066190Y-146084761D01*
X152161428Y-146132380D01*
X152256666Y-146132380D01*
X152590000Y-146132380D02*
X152590000Y-145465714D01*
X152590000Y-145656190D02*
X152637619Y-145560952D01*
X152685238Y-145513333D01*
X152780476Y-145465714D01*
X152875714Y-145465714D01*
X153637619Y-145465714D02*
X153637619Y-146132380D01*
X153209047Y-145465714D02*
X153209047Y-145989523D01*
X153256666Y-146084761D01*
X153351904Y-146132380D01*
X153494761Y-146132380D01*
X153590000Y-146084761D01*
X153637619Y-146037142D01*
X154113809Y-145465714D02*
X154113809Y-146465714D01*
X154113809Y-145513333D02*
X154209047Y-145465714D01*
X154399523Y-145465714D01*
X154494761Y-145513333D01*
X154542380Y-145560952D01*
X154590000Y-145656190D01*
X154590000Y-145941904D01*
X154542380Y-146037142D01*
X154494761Y-146084761D01*
X154399523Y-146132380D01*
X154209047Y-146132380D01*
X154113809Y-146084761D01*
X195378571Y-144971904D02*
X195378571Y-144638571D01*
X195902380Y-144495714D02*
X195902380Y-144971904D01*
X194902380Y-144971904D01*
X194902380Y-144495714D01*
X195378571Y-143733809D02*
X195378571Y-144067142D01*
X195902380Y-144067142D02*
X194902380Y-144067142D01*
X194902380Y-143590952D01*
X195902380Y-142638571D02*
X195426190Y-142971904D01*
X195902380Y-143210000D02*
X194902380Y-143210000D01*
X194902380Y-142829047D01*
X194950000Y-142733809D01*
X194997619Y-142686190D01*
X195092857Y-142638571D01*
X195235714Y-142638571D01*
X195330952Y-142686190D01*
X195378571Y-142733809D01*
X195426190Y-142829047D01*
X195426190Y-143210000D01*
X194902380Y-142305238D02*
X194902380Y-141686190D01*
X195283333Y-142019523D01*
X195283333Y-141876666D01*
X195330952Y-141781428D01*
X195378571Y-141733809D01*
X195473809Y-141686190D01*
X195711904Y-141686190D01*
X195807142Y-141733809D01*
X195854761Y-141781428D01*
X195902380Y-141876666D01*
X195902380Y-142162380D01*
X195854761Y-142257619D01*
X195807142Y-142305238D01*
X194997619Y-141305238D02*
X194950000Y-141257619D01*
X194902380Y-141162380D01*
X194902380Y-140924285D01*
X194950000Y-140829047D01*
X194997619Y-140781428D01*
X195092857Y-140733809D01*
X195188095Y-140733809D01*
X195330952Y-140781428D01*
X195902380Y-141352857D01*
X195902380Y-140733809D01*
X195378571Y-139210000D02*
X195378571Y-139543333D01*
X195902380Y-139543333D02*
X194902380Y-139543333D01*
X194902380Y-139067142D01*
X195854761Y-138305238D02*
X195902380Y-138400476D01*
X195902380Y-138590952D01*
X195854761Y-138686190D01*
X195759523Y-138733809D01*
X195378571Y-138733809D01*
X195283333Y-138686190D01*
X195235714Y-138590952D01*
X195235714Y-138400476D01*
X195283333Y-138305238D01*
X195378571Y-138257619D01*
X195473809Y-138257619D01*
X195569047Y-138733809D01*
X195902380Y-137400476D02*
X195378571Y-137400476D01*
X195283333Y-137448095D01*
X195235714Y-137543333D01*
X195235714Y-137733809D01*
X195283333Y-137829047D01*
X195854761Y-137400476D02*
X195902380Y-137495714D01*
X195902380Y-137733809D01*
X195854761Y-137829047D01*
X195759523Y-137876666D01*
X195664285Y-137876666D01*
X195569047Y-137829047D01*
X195521428Y-137733809D01*
X195521428Y-137495714D01*
X195473809Y-137400476D01*
X195235714Y-137067142D02*
X195235714Y-136686190D01*
X194902380Y-136924285D02*
X195759523Y-136924285D01*
X195854761Y-136876666D01*
X195902380Y-136781428D01*
X195902380Y-136686190D01*
X195902380Y-136352857D02*
X194902380Y-136352857D01*
X195902380Y-135924285D02*
X195378571Y-135924285D01*
X195283333Y-135971904D01*
X195235714Y-136067142D01*
X195235714Y-136210000D01*
X195283333Y-136305238D01*
X195330952Y-136352857D01*
X195854761Y-135067142D02*
X195902380Y-135162380D01*
X195902380Y-135352857D01*
X195854761Y-135448095D01*
X195759523Y-135495714D01*
X195378571Y-135495714D01*
X195283333Y-135448095D01*
X195235714Y-135352857D01*
X195235714Y-135162380D01*
X195283333Y-135067142D01*
X195378571Y-135019523D01*
X195473809Y-135019523D01*
X195569047Y-135495714D01*
X195902380Y-134590952D02*
X195235714Y-134590952D01*
X195426190Y-134590952D02*
X195330952Y-134543333D01*
X195283333Y-134495714D01*
X195235714Y-134400476D01*
X195235714Y-134305238D01*
D11*
X187260000Y-143615000D02*
X187310000Y-143615000D01*
X187260000Y-146035000D02*
X187310000Y-146035000D01*
X182190000Y-143615000D02*
X182240000Y-143615000D01*
X182190000Y-146035000D02*
X182240000Y-146035000D01*
X182240000Y-147415000D02*
X182240000Y-146035000D01*
X187310000Y-146035000D02*
X187310000Y-143615000D01*
X182190000Y-146035000D02*
X182190000Y-143615000D01*
X161900000Y-141050000D02*
X164450000Y-141050000D01*
X161900000Y-142750000D02*
X164450000Y-142750000D01*
X161900000Y-141050000D02*
X161900000Y-142750000D01*
X159410000Y-134910000D02*
X159410000Y-136125000D01*
X159350000Y-130950000D02*
X159350000Y-128690000D01*
X158850000Y-130950000D02*
X158850000Y-128690000D01*
X156250000Y-132550000D02*
X155250000Y-132550000D01*
X156250000Y-130950000D02*
X156250000Y-132550000D01*
X155250000Y-130950000D02*
X156250000Y-130950000D01*
X155250000Y-132550000D02*
X155250000Y-130950000D01*
X158850000Y-132550000D02*
X159850000Y-132550000D01*
X158850000Y-130950000D02*
X158850000Y-132550000D01*
X159850000Y-130950000D02*
X158850000Y-130950000D01*
X159850000Y-132550000D02*
X159850000Y-130950000D01*
X154490000Y-134910000D02*
X155410000Y-134910000D01*
X160610000Y-134910000D02*
X159690000Y-134910000D01*
X157050000Y-133050000D02*
X157050000Y-128690000D01*
X158050000Y-133050000D02*
X157050000Y-133050000D01*
X158050000Y-128690000D02*
X158050000Y-133050000D01*
X155410000Y-134910000D02*
X155690000Y-134910000D01*
X155410000Y-136510000D02*
X155410000Y-134910000D01*
X154490000Y-136510000D02*
X155410000Y-136510000D01*
X154490000Y-128690000D02*
X154490000Y-136510000D01*
X160610000Y-128690000D02*
X154490000Y-128690000D01*
X160610000Y-136510000D02*
X160610000Y-128690000D01*
X159690000Y-136510000D02*
X160610000Y-136510000D01*
X159690000Y-134910000D02*
X159690000Y-136510000D01*
X159410000Y-134910000D02*
X159690000Y-134910000D01*
X180635000Y-143110000D02*
X181110000Y-143110000D01*
X173890000Y-135890000D02*
X173890000Y-136365000D01*
X174365000Y-135890000D02*
X173890000Y-135890000D01*
X181110000Y-135890000D02*
X181110000Y-136365000D01*
X180635000Y-135890000D02*
X181110000Y-135890000D01*
X173890000Y-143110000D02*
X173890000Y-142635000D01*
X174365000Y-143110000D02*
X173890000Y-143110000D01*
X156680000Y-137940000D02*
X156680000Y-139400000D01*
X153520000Y-137940000D02*
X153520000Y-140100000D01*
X153520000Y-137940000D02*
X154450000Y-137940000D01*
X156680000Y-137940000D02*
X155750000Y-137940000D01*
X168537221Y-141410000D02*
X168862779Y-141410000D01*
X168537221Y-140390000D02*
X168862779Y-140390000D01*
X167515000Y-134690000D02*
X166790000Y-134690000D01*
X171010000Y-138910000D02*
X171010000Y-138185000D01*
X170285000Y-138910000D02*
X171010000Y-138910000D01*
X166790000Y-138910000D02*
X166790000Y-138185000D01*
X167515000Y-138910000D02*
X166790000Y-138910000D01*
X171010000Y-134690000D02*
X171010000Y-135415000D01*
X170285000Y-134690000D02*
X171010000Y-134690000D01*
X185175727Y-133354478D02*
X184945522Y-133124273D01*
X184454478Y-134075727D02*
X184224273Y-133845522D01*
X187510000Y-134262779D02*
X187510000Y-133937221D01*
X186490000Y-134262779D02*
X186490000Y-133937221D01*
X158200000Y-140410000D02*
X160650000Y-140410000D01*
X160000000Y-137190000D02*
X158200000Y-137190000D01*
X158862779Y-140990000D02*
X158537221Y-140990000D01*
X158862779Y-142010000D02*
X158537221Y-142010000D01*
X153710000Y-133562779D02*
X153710000Y-133237221D01*
X152690000Y-133562779D02*
X152690000Y-133237221D01*
X154637221Y-143810000D02*
X154962779Y-143810000D01*
X154637221Y-142790000D02*
X154962779Y-142790000D01*
X153935000Y-131685000D02*
X153935000Y-129400000D01*
X152465000Y-131685000D02*
X153935000Y-131685000D01*
X152465000Y-129400000D02*
X152465000Y-131685000D01*
X156500000Y-142350000D02*
X153950000Y-142350000D01*
X156500000Y-140650000D02*
X153950000Y-140650000D01*
X156500000Y-142350000D02*
X156500000Y-140650000D01*
X162310000Y-136862779D02*
X162310000Y-136537221D01*
X161290000Y-136862779D02*
X161290000Y-136537221D01*
X187650000Y-140000000D02*
X187650000Y-136000000D01*
X184350000Y-140000000D02*
X187650000Y-140000000D01*
X173675000Y-145025000D02*
X173675000Y-146375000D01*
X171925000Y-145025000D02*
X171925000Y-146375000D01*
X163237221Y-140410000D02*
X163562779Y-140410000D01*
X163237221Y-139390000D02*
X163562779Y-139390000D01*
X161600000Y-143140000D02*
X159150000Y-143140000D01*
X159800000Y-146360000D02*
X161600000Y-146360000D01*
X163040000Y-144587221D02*
X163040000Y-144912779D01*
X164060000Y-144587221D02*
X164060000Y-144912779D01*
X157290000Y-144637221D02*
X157290000Y-144962779D01*
X158310000Y-144637221D02*
X158310000Y-144962779D01*
X178410000Y-133962779D02*
X178410000Y-133637221D01*
X177390000Y-133962779D02*
X177390000Y-133637221D01*
X182490000Y-138937221D02*
X182490000Y-139262779D01*
X183510000Y-138937221D02*
X183510000Y-139262779D01*
X177110000Y-145872779D02*
X177110000Y-145547221D01*
X176090000Y-145872779D02*
X176090000Y-145547221D01*
X174590000Y-145537221D02*
X174590000Y-145862779D01*
X175610000Y-145537221D02*
X175610000Y-145862779D01*
X177590000Y-145537221D02*
X177590000Y-145862779D01*
X178610000Y-145537221D02*
X178610000Y-145862779D01*
X151762500Y-138100000D02*
X151312500Y-138100000D01*
X151762500Y-138100000D02*
X151762500Y-138550000D01*
X151212500Y-143700000D02*
X151212500Y-143250000D01*
X149362500Y-143700000D02*
X151212500Y-143700000D01*
X146812500Y-135900000D02*
X147062500Y-135900000D01*
X146812500Y-143700000D02*
X147062500Y-143700000D01*
X149362500Y-135900000D02*
X151212500Y-135900000D01*
X151212500Y-135900000D02*
X151212500Y-136350000D01*
D10*
X180642380Y-145158333D02*
X181356666Y-145158333D01*
X181499523Y-145205952D01*
X181594761Y-145301190D01*
X181642380Y-145444047D01*
X181642380Y-145539285D01*
X180642380Y-144205952D02*
X180642380Y-144682142D01*
X181118571Y-144729761D01*
X181070952Y-144682142D01*
X181023333Y-144586904D01*
X181023333Y-144348809D01*
X181070952Y-144253571D01*
X181118571Y-144205952D01*
X181213809Y-144158333D01*
X181451904Y-144158333D01*
X181547142Y-144205952D01*
X181594761Y-144253571D01*
X181642380Y-144348809D01*
X181642380Y-144586904D01*
X181594761Y-144682142D01*
X181547142Y-144729761D01*
X165001904Y-142392380D02*
X165001904Y-141392380D01*
X165240000Y-141392380D01*
X165382857Y-141440000D01*
X165478095Y-141535238D01*
X165525714Y-141630476D01*
X165573333Y-141820952D01*
X165573333Y-141963809D01*
X165525714Y-142154285D01*
X165478095Y-142249523D01*
X165382857Y-142344761D01*
X165240000Y-142392380D01*
X165001904Y-142392380D01*
X166525714Y-142392380D02*
X165954285Y-142392380D01*
X166240000Y-142392380D02*
X166240000Y-141392380D01*
X166144761Y-141535238D01*
X166049523Y-141630476D01*
X165954285Y-141678095D01*
X157066666Y-135982380D02*
X157066666Y-136696666D01*
X157019047Y-136839523D01*
X156923809Y-136934761D01*
X156780952Y-136982380D01*
X156685714Y-136982380D01*
X157495238Y-136077619D02*
X157542857Y-136030000D01*
X157638095Y-135982380D01*
X157876190Y-135982380D01*
X157971428Y-136030000D01*
X158019047Y-136077619D01*
X158066666Y-136172857D01*
X158066666Y-136268095D01*
X158019047Y-136410952D01*
X157447619Y-136982380D01*
X158066666Y-136982380D01*
X174898095Y-133962380D02*
X174898095Y-134771904D01*
X174945714Y-134867142D01*
X174993333Y-134914761D01*
X175088571Y-134962380D01*
X175279047Y-134962380D01*
X175374285Y-134914761D01*
X175421904Y-134867142D01*
X175469523Y-134771904D01*
X175469523Y-133962380D01*
X176469523Y-134962380D02*
X175898095Y-134962380D01*
X176183809Y-134962380D02*
X176183809Y-133962380D01*
X176088571Y-134105238D01*
X175993333Y-134200476D01*
X175898095Y-134248095D01*
X153244761Y-137727619D02*
X153149523Y-137680000D01*
X153054285Y-137584761D01*
X152911428Y-137441904D01*
X152816190Y-137394285D01*
X152720952Y-137394285D01*
X152768571Y-137632380D02*
X152673333Y-137584761D01*
X152578095Y-137489523D01*
X152530476Y-137299047D01*
X152530476Y-136965714D01*
X152578095Y-136775238D01*
X152673333Y-136680000D01*
X152768571Y-136632380D01*
X152959047Y-136632380D01*
X153054285Y-136680000D01*
X153149523Y-136775238D01*
X153197142Y-136965714D01*
X153197142Y-137299047D01*
X153149523Y-137489523D01*
X153054285Y-137584761D01*
X152959047Y-137632380D01*
X152768571Y-137632380D01*
X154149523Y-137632380D02*
X153578095Y-137632380D01*
X153863809Y-137632380D02*
X153863809Y-136632380D01*
X153768571Y-136775238D01*
X153673333Y-136870476D01*
X153578095Y-136918095D01*
X170903333Y-141442380D02*
X170570000Y-140966190D01*
X170331904Y-141442380D02*
X170331904Y-140442380D01*
X170712857Y-140442380D01*
X170808095Y-140490000D01*
X170855714Y-140537619D01*
X170903333Y-140632857D01*
X170903333Y-140775714D01*
X170855714Y-140870952D01*
X170808095Y-140918571D01*
X170712857Y-140966190D01*
X170331904Y-140966190D01*
X171808095Y-140442380D02*
X171331904Y-140442380D01*
X171284285Y-140918571D01*
X171331904Y-140870952D01*
X171427142Y-140823333D01*
X171665238Y-140823333D01*
X171760476Y-140870952D01*
X171808095Y-140918571D01*
X171855714Y-141013809D01*
X171855714Y-141251904D01*
X171808095Y-141347142D01*
X171760476Y-141394761D01*
X171665238Y-141442380D01*
X171427142Y-141442380D01*
X171331904Y-141394761D01*
X171284285Y-141347142D01*
X165272380Y-137921904D02*
X166081904Y-137921904D01*
X166177142Y-137874285D01*
X166224761Y-137826666D01*
X166272380Y-137731428D01*
X166272380Y-137540952D01*
X166224761Y-137445714D01*
X166177142Y-137398095D01*
X166081904Y-137350476D01*
X165272380Y-137350476D01*
X165605714Y-136445714D02*
X166272380Y-136445714D01*
X165224761Y-136683809D02*
X165939047Y-136921904D01*
X165939047Y-136302857D01*
X183251104Y-134813193D02*
X182914386Y-134476475D01*
X183621493Y-133769369D01*
X183857195Y-135419285D02*
X183453134Y-135015224D01*
X183655165Y-135217254D02*
X184362272Y-134510147D01*
X184193913Y-134543819D01*
X184059226Y-134543819D01*
X183958211Y-134510147D01*
X185353333Y-135787142D02*
X185305714Y-135834761D01*
X185162857Y-135882380D01*
X185067619Y-135882380D01*
X184924761Y-135834761D01*
X184829523Y-135739523D01*
X184781904Y-135644285D01*
X184734285Y-135453809D01*
X184734285Y-135310952D01*
X184781904Y-135120476D01*
X184829523Y-135025238D01*
X184924761Y-134930000D01*
X185067619Y-134882380D01*
X185162857Y-134882380D01*
X185305714Y-134930000D01*
X185353333Y-134977619D01*
X185829523Y-135882380D02*
X186020000Y-135882380D01*
X186115238Y-135834761D01*
X186162857Y-135787142D01*
X186258095Y-135644285D01*
X186305714Y-135453809D01*
X186305714Y-135072857D01*
X186258095Y-134977619D01*
X186210476Y-134930000D01*
X186115238Y-134882380D01*
X185924761Y-134882380D01*
X185829523Y-134930000D01*
X185781904Y-134977619D01*
X185734285Y-135072857D01*
X185734285Y-135310952D01*
X185781904Y-135406190D01*
X185829523Y-135453809D01*
X185924761Y-135501428D01*
X186115238Y-135501428D01*
X186210476Y-135453809D01*
X186258095Y-135406190D01*
X186305714Y-135310952D01*
X161078095Y-138332380D02*
X161078095Y-139141904D01*
X161125714Y-139237142D01*
X161173333Y-139284761D01*
X161268571Y-139332380D01*
X161459047Y-139332380D01*
X161554285Y-139284761D01*
X161601904Y-139237142D01*
X161649523Y-139141904D01*
X161649523Y-138332380D01*
X162030476Y-138332380D02*
X162649523Y-138332380D01*
X162316190Y-138713333D01*
X162459047Y-138713333D01*
X162554285Y-138760952D01*
X162601904Y-138808571D01*
X162649523Y-138903809D01*
X162649523Y-139141904D01*
X162601904Y-139237142D01*
X162554285Y-139284761D01*
X162459047Y-139332380D01*
X162173333Y-139332380D01*
X162078095Y-139284761D01*
X162030476Y-139237142D01*
X160713333Y-141682380D02*
X160380000Y-141206190D01*
X160141904Y-141682380D02*
X160141904Y-140682380D01*
X160522857Y-140682380D01*
X160618095Y-140730000D01*
X160665714Y-140777619D01*
X160713333Y-140872857D01*
X160713333Y-141015714D01*
X160665714Y-141110952D01*
X160618095Y-141158571D01*
X160522857Y-141206190D01*
X160141904Y-141206190D01*
X161570476Y-141015714D02*
X161570476Y-141682380D01*
X161332380Y-140634761D02*
X161094285Y-141349047D01*
X161713333Y-141349047D01*
X152222380Y-133566666D02*
X151746190Y-133900000D01*
X152222380Y-134138095D02*
X151222380Y-134138095D01*
X151222380Y-133757142D01*
X151270000Y-133661904D01*
X151317619Y-133614285D01*
X151412857Y-133566666D01*
X151555714Y-133566666D01*
X151650952Y-133614285D01*
X151698571Y-133661904D01*
X151746190Y-133757142D01*
X151746190Y-134138095D01*
X151222380Y-133233333D02*
X151222380Y-132614285D01*
X151603333Y-132947619D01*
X151603333Y-132804761D01*
X151650952Y-132709523D01*
X151698571Y-132661904D01*
X151793809Y-132614285D01*
X152031904Y-132614285D01*
X152127142Y-132661904D01*
X152174761Y-132709523D01*
X152222380Y-132804761D01*
X152222380Y-133090476D01*
X152174761Y-133185714D01*
X152127142Y-133233333D01*
X152213333Y-143772380D02*
X151880000Y-143296190D01*
X151641904Y-143772380D02*
X151641904Y-142772380D01*
X152022857Y-142772380D01*
X152118095Y-142820000D01*
X152165714Y-142867619D01*
X152213333Y-142962857D01*
X152213333Y-143105714D01*
X152165714Y-143200952D01*
X152118095Y-143248571D01*
X152022857Y-143296190D01*
X151641904Y-143296190D01*
X152594285Y-142867619D02*
X152641904Y-142820000D01*
X152737142Y-142772380D01*
X152975238Y-142772380D01*
X153070476Y-142820000D01*
X153118095Y-142867619D01*
X153165714Y-142962857D01*
X153165714Y-143058095D01*
X153118095Y-143200952D01*
X152546666Y-143772380D01*
X153165714Y-143772380D01*
X152222380Y-130938095D02*
X151222380Y-130938095D01*
X151222380Y-130700000D01*
X151270000Y-130557142D01*
X151365238Y-130461904D01*
X151460476Y-130414285D01*
X151650952Y-130366666D01*
X151793809Y-130366666D01*
X151984285Y-130414285D01*
X152079523Y-130461904D01*
X152174761Y-130557142D01*
X152222380Y-130700000D01*
X152222380Y-130938095D01*
X151222380Y-130033333D02*
X151222380Y-129414285D01*
X151603333Y-129747619D01*
X151603333Y-129604761D01*
X151650952Y-129509523D01*
X151698571Y-129461904D01*
X151793809Y-129414285D01*
X152031904Y-129414285D01*
X152127142Y-129461904D01*
X152174761Y-129509523D01*
X152222380Y-129604761D01*
X152222380Y-129890476D01*
X152174761Y-129985714D01*
X152127142Y-130033333D01*
X151871904Y-141992380D02*
X151871904Y-140992380D01*
X152110000Y-140992380D01*
X152252857Y-141040000D01*
X152348095Y-141135238D01*
X152395714Y-141230476D01*
X152443333Y-141420952D01*
X152443333Y-141563809D01*
X152395714Y-141754285D01*
X152348095Y-141849523D01*
X152252857Y-141944761D01*
X152110000Y-141992380D01*
X151871904Y-141992380D01*
X152824285Y-141087619D02*
X152871904Y-141040000D01*
X152967142Y-140992380D01*
X153205238Y-140992380D01*
X153300476Y-141040000D01*
X153348095Y-141087619D01*
X153395714Y-141182857D01*
X153395714Y-141278095D01*
X153348095Y-141420952D01*
X152776666Y-141992380D01*
X153395714Y-141992380D01*
X163557142Y-136726666D02*
X163604761Y-136774285D01*
X163652380Y-136917142D01*
X163652380Y-137012380D01*
X163604761Y-137155238D01*
X163509523Y-137250476D01*
X163414285Y-137298095D01*
X163223809Y-137345714D01*
X163080952Y-137345714D01*
X162890476Y-137298095D01*
X162795238Y-137250476D01*
X162700000Y-137155238D01*
X162652380Y-137012380D01*
X162652380Y-136917142D01*
X162700000Y-136774285D01*
X162747619Y-136726666D01*
X163080952Y-136155238D02*
X163033333Y-136250476D01*
X162985714Y-136298095D01*
X162890476Y-136345714D01*
X162842857Y-136345714D01*
X162747619Y-136298095D01*
X162700000Y-136250476D01*
X162652380Y-136155238D01*
X162652380Y-135964761D01*
X162700000Y-135869523D01*
X162747619Y-135821904D01*
X162842857Y-135774285D01*
X162890476Y-135774285D01*
X162985714Y-135821904D01*
X163033333Y-135869523D01*
X163080952Y-135964761D01*
X163080952Y-136155238D01*
X163128571Y-136250476D01*
X163176190Y-136298095D01*
X163271428Y-136345714D01*
X163461904Y-136345714D01*
X163557142Y-136298095D01*
X163604761Y-136250476D01*
X163652380Y-136155238D01*
X163652380Y-135964761D01*
X163604761Y-135869523D01*
X163557142Y-135821904D01*
X163461904Y-135774285D01*
X163271428Y-135774285D01*
X163176190Y-135821904D01*
X163128571Y-135869523D01*
X163080952Y-135964761D01*
X185543809Y-140836190D02*
X185543809Y-141312380D01*
X185210476Y-140312380D02*
X185543809Y-140836190D01*
X185877142Y-140312380D01*
X186162857Y-140407619D02*
X186210476Y-140360000D01*
X186305714Y-140312380D01*
X186543809Y-140312380D01*
X186639047Y-140360000D01*
X186686666Y-140407619D01*
X186734285Y-140502857D01*
X186734285Y-140598095D01*
X186686666Y-140740952D01*
X186115238Y-141312380D01*
X186734285Y-141312380D01*
X171116190Y-146196190D02*
X171592380Y-146196190D01*
X170592380Y-146529523D02*
X171116190Y-146196190D01*
X170592380Y-145862857D01*
X171592380Y-145005714D02*
X171592380Y-145577142D01*
X171592380Y-145291428D02*
X170592380Y-145291428D01*
X170735238Y-145386666D01*
X170830476Y-145481904D01*
X170878095Y-145577142D01*
X165583333Y-140492380D02*
X165250000Y-140016190D01*
X165011904Y-140492380D02*
X165011904Y-139492380D01*
X165392857Y-139492380D01*
X165488095Y-139540000D01*
X165535714Y-139587619D01*
X165583333Y-139682857D01*
X165583333Y-139825714D01*
X165535714Y-139920952D01*
X165488095Y-139968571D01*
X165392857Y-140016190D01*
X165011904Y-140016190D01*
X166535714Y-140492380D02*
X165964285Y-140492380D01*
X166250000Y-140492380D02*
X166250000Y-139492380D01*
X166154761Y-139635238D01*
X166059523Y-139730476D01*
X165964285Y-139778095D01*
X160058095Y-141952380D02*
X160058095Y-142761904D01*
X160105714Y-142857142D01*
X160153333Y-142904761D01*
X160248571Y-142952380D01*
X160439047Y-142952380D01*
X160534285Y-142904761D01*
X160581904Y-142857142D01*
X160629523Y-142761904D01*
X160629523Y-141952380D01*
X161058095Y-142047619D02*
X161105714Y-142000000D01*
X161200952Y-141952380D01*
X161439047Y-141952380D01*
X161534285Y-142000000D01*
X161581904Y-142047619D01*
X161629523Y-142142857D01*
X161629523Y-142238095D01*
X161581904Y-142380952D01*
X161010476Y-142952380D01*
X161629523Y-142952380D01*
X165377142Y-144836666D02*
X165424761Y-144884285D01*
X165472380Y-145027142D01*
X165472380Y-145122380D01*
X165424761Y-145265238D01*
X165329523Y-145360476D01*
X165234285Y-145408095D01*
X165043809Y-145455714D01*
X164900952Y-145455714D01*
X164710476Y-145408095D01*
X164615238Y-145360476D01*
X164520000Y-145265238D01*
X164472380Y-145122380D01*
X164472380Y-145027142D01*
X164520000Y-144884285D01*
X164567619Y-144836666D01*
X164472380Y-144503333D02*
X164472380Y-143836666D01*
X165472380Y-144265238D01*
X156847142Y-145736666D02*
X156894761Y-145784285D01*
X156942380Y-145927142D01*
X156942380Y-146022380D01*
X156894761Y-146165238D01*
X156799523Y-146260476D01*
X156704285Y-146308095D01*
X156513809Y-146355714D01*
X156370952Y-146355714D01*
X156180476Y-146308095D01*
X156085238Y-146260476D01*
X155990000Y-146165238D01*
X155942380Y-146022380D01*
X155942380Y-145927142D01*
X155990000Y-145784285D01*
X156037619Y-145736666D01*
X155942380Y-144879523D02*
X155942380Y-145070000D01*
X155990000Y-145165238D01*
X156037619Y-145212857D01*
X156180476Y-145308095D01*
X156370952Y-145355714D01*
X156751904Y-145355714D01*
X156847142Y-145308095D01*
X156894761Y-145260476D01*
X156942380Y-145165238D01*
X156942380Y-144974761D01*
X156894761Y-144879523D01*
X156847142Y-144831904D01*
X156751904Y-144784285D01*
X156513809Y-144784285D01*
X156418571Y-144831904D01*
X156370952Y-144879523D01*
X156323333Y-144974761D01*
X156323333Y-145165238D01*
X156370952Y-145260476D01*
X156418571Y-145308095D01*
X156513809Y-145355714D01*
X179627142Y-134046666D02*
X179674761Y-134094285D01*
X179722380Y-134237142D01*
X179722380Y-134332380D01*
X179674761Y-134475238D01*
X179579523Y-134570476D01*
X179484285Y-134618095D01*
X179293809Y-134665714D01*
X179150952Y-134665714D01*
X178960476Y-134618095D01*
X178865238Y-134570476D01*
X178770000Y-134475238D01*
X178722380Y-134332380D01*
X178722380Y-134237142D01*
X178770000Y-134094285D01*
X178817619Y-134046666D01*
X178722380Y-133141904D02*
X178722380Y-133618095D01*
X179198571Y-133665714D01*
X179150952Y-133618095D01*
X179103333Y-133522857D01*
X179103333Y-133284761D01*
X179150952Y-133189523D01*
X179198571Y-133141904D01*
X179293809Y-133094285D01*
X179531904Y-133094285D01*
X179627142Y-133141904D01*
X179674761Y-133189523D01*
X179722380Y-133284761D01*
X179722380Y-133522857D01*
X179674761Y-133618095D01*
X179627142Y-133665714D01*
X183437142Y-136996666D02*
X183484761Y-137044285D01*
X183532380Y-137187142D01*
X183532380Y-137282380D01*
X183484761Y-137425238D01*
X183389523Y-137520476D01*
X183294285Y-137568095D01*
X183103809Y-137615714D01*
X182960952Y-137615714D01*
X182770476Y-137568095D01*
X182675238Y-137520476D01*
X182580000Y-137425238D01*
X182532380Y-137282380D01*
X182532380Y-137187142D01*
X182580000Y-137044285D01*
X182627619Y-136996666D01*
X182865714Y-136139523D02*
X183532380Y-136139523D01*
X182484761Y-136377619D02*
X183199047Y-136615714D01*
X183199047Y-135996666D01*
X174833333Y-144417142D02*
X174785714Y-144464761D01*
X174642857Y-144512380D01*
X174547619Y-144512380D01*
X174404761Y-144464761D01*
X174309523Y-144369523D01*
X174261904Y-144274285D01*
X174214285Y-144083809D01*
X174214285Y-143940952D01*
X174261904Y-143750476D01*
X174309523Y-143655238D01*
X174404761Y-143560000D01*
X174547619Y-143512380D01*
X174642857Y-143512380D01*
X174785714Y-143560000D01*
X174833333Y-143607619D01*
X175166666Y-143512380D02*
X175785714Y-143512380D01*
X175452380Y-143893333D01*
X175595238Y-143893333D01*
X175690476Y-143940952D01*
X175738095Y-143988571D01*
X175785714Y-144083809D01*
X175785714Y-144321904D01*
X175738095Y-144417142D01*
X175690476Y-144464761D01*
X175595238Y-144512380D01*
X175309523Y-144512380D01*
X175214285Y-144464761D01*
X175166666Y-144417142D01*
X176653333Y-144287142D02*
X176605714Y-144334761D01*
X176462857Y-144382380D01*
X176367619Y-144382380D01*
X176224761Y-144334761D01*
X176129523Y-144239523D01*
X176081904Y-144144285D01*
X176034285Y-143953809D01*
X176034285Y-143810952D01*
X176081904Y-143620476D01*
X176129523Y-143525238D01*
X176224761Y-143430000D01*
X176367619Y-143382380D01*
X176462857Y-143382380D01*
X176605714Y-143430000D01*
X176653333Y-143477619D01*
X177034285Y-143477619D02*
X177081904Y-143430000D01*
X177177142Y-143382380D01*
X177415238Y-143382380D01*
X177510476Y-143430000D01*
X177558095Y-143477619D01*
X177605714Y-143572857D01*
X177605714Y-143668095D01*
X177558095Y-143810952D01*
X176986666Y-144382380D01*
X177605714Y-144382380D01*
X178523333Y-144277142D02*
X178475714Y-144324761D01*
X178332857Y-144372380D01*
X178237619Y-144372380D01*
X178094761Y-144324761D01*
X177999523Y-144229523D01*
X177951904Y-144134285D01*
X177904285Y-143943809D01*
X177904285Y-143800952D01*
X177951904Y-143610476D01*
X177999523Y-143515238D01*
X178094761Y-143420000D01*
X178237619Y-143372380D01*
X178332857Y-143372380D01*
X178475714Y-143420000D01*
X178523333Y-143467619D01*
X179475714Y-144372380D02*
X178904285Y-144372380D01*
X179190000Y-144372380D02*
X179190000Y-143372380D01*
X179094761Y-143515238D01*
X178999523Y-143610476D01*
X178904285Y-143658095D01*
M02*
