M48
; DRILL file {KiCad 5.1.2-f72e74a~84~ubuntu19.04.1} date fre 31 maj 2019 15:03:55
; FORMAT={-:-/ absolute / inch / decimal}
; #@! TF.CreationDate,2019-05-31T15:03:55+02:00
; #@! TF.GenerationSoftware,Kicad,Pcbnew,5.1.2-f72e74a~84~ubuntu19.04.1
; #@! TF.FileFunction,Plated,1,2,PTH
FMAT,2
INCH
T1C0.0118
T2C0.0197
T3C0.0236
T4C0.0295
T5C0.0335
T6C0.0394
%
G90
G05
T1
X6.0226Y-5.499
X6.0315Y-5.3268
X6.0659Y-5.3907
X6.1112Y-5.2126
X6.1358Y-5.6949
X6.1535Y-5.3701
X6.2156Y-5.7814
X6.25Y-5.6191
X6.3051Y-5.2205
X6.3583Y-5.4696
X6.4134Y-5.4134
X6.436Y-5.7814
X6.4649Y-5.4702
X6.4822Y-5.7263
X6.4911Y-5.2018
X6.5108Y-5.7274
X6.5151Y-5.6322
X6.5157Y-5.6683
X6.5315Y-5.3593
X6.5512Y-5.7904
X6.5738Y-5.5
X6.6161Y-5.6132
X6.6167Y-5.7342
X6.7362Y-5.4872
X6.7704Y-5.8688
X6.7757Y-5.4197
X6.7854Y-5.3189
X6.7866Y-5.7259
X6.7884Y-5.8465
X6.7953Y-5.4459
X6.7963Y-5.6348
X6.8504Y-5.2362
X6.8504Y-5.31
X6.8711Y-5.6624
X6.9222Y-5.8091
X6.9252Y-5.5512
X6.9291Y-5.4331
X6.9882Y-5.4921
X7.0128Y-5.8012
X7.0472Y-5.4331
X7.0472Y-5.5512
X7.0669Y-5.2362
X7.126Y-5.2953
X7.1568Y-5.517
X7.1587Y-5.5482
X7.1654Y-5.4724
X7.2126Y-5.5433
X7.2913Y-5.4724
X7.3071Y-5.2441
X7.3295Y-5.6916
X7.3543Y-5.3858
X7.3744Y-5.7158
X7.4094Y-5.1732
X7.4094Y-5.2913
X7.4094Y-5.6063
X7.4094Y-5.685
X7.4094Y-5.7638
X7.4094Y-5.8425
X7.4096Y-5.3701
X7.4096Y-5.4488
X7.4096Y-5.5276
X7.4134Y-5.2402
T2
X6.1969Y-5.2047
X6.6142Y-5.8002
X6.7815Y-5.2756
X6.8602Y-5.814
X7.0354Y-5.2756
X7.0597Y-5.7968
X7.2037Y-5.8346
T4
X6.1634Y-5.3169
X6.2421Y-5.3169
T5
X5.9414Y-5.4055
X5.9414Y-5.6024
T6
X6.4276Y-5.1043
X6.5276Y-5.1043
X6.6276Y-5.1043
X6.7276Y-5.1043
X6.8276Y-5.1043
X6.9276Y-5.1043
X7.0276Y-5.1043
X7.1276Y-5.1043
X7.2276Y-5.1043
X7.3276Y-5.1043
X7.4276Y-5.1043
X7.5276Y-5.1043
X6.0276Y-5.9035
X6.1276Y-5.9035
X6.2276Y-5.9035
X6.3276Y-5.9035
X6.4276Y-5.9035
X6.5276Y-5.9035
X6.6276Y-5.9035
X6.7276Y-5.9035
X6.8276Y-5.9035
X6.9276Y-5.9035
X7.0276Y-5.9035
X7.1276Y-5.9035
X7.2276Y-5.9035
X7.3276Y-5.9035
X7.4276Y-5.9035
X7.5276Y-5.9035
T3
G00X5.8214Y-5.3661
M15
G01X5.8489Y-5.3661
M16
G05
G00X5.8489Y-5.6417
M15
G01X5.8214Y-5.6417
M16
G05
T0
M30
