G04 #@! TF.GenerationSoftware,KiCad,Pcbnew,5.1.2-f72e74a~84~ubuntu19.04.1*
G04 #@! TF.CreationDate,2019-06-05T10:31:07+02:00*
G04 #@! TF.ProjectId,efr32_feather,65667233-325f-4666-9561-746865722e6b,0.1*
G04 #@! TF.SameCoordinates,Original*
G04 #@! TF.FileFunction,Legend,Bot*
G04 #@! TF.FilePolarity,Positive*
%FSLAX46Y46*%
G04 Gerber Fmt 4.6, Leading zero omitted, Abs format (unit mm)*
G04 Created by KiCad (PCBNEW 5.1.2-f72e74a~84~ubuntu19.04.1) date 2019-06-05 10:31:07*
%MOMM*%
%LPD*%
G04 APERTURE LIST*
%ADD10C,0.120000*%
%ADD11C,0.150000*%
G04 APERTURE END LIST*
D10*
X168230000Y-140970000D02*
G75*
G03X168230000Y-140970000I-700000J0D01*
G01*
X170360000Y-141010000D02*
G75*
G03X170360000Y-141010000I-700000J0D01*
G01*
X172500000Y-140970000D02*
G75*
G03X172500000Y-140970000I-700000J0D01*
G01*
X185880000Y-141850000D02*
G75*
G03X185880000Y-141850000I-700000J0D01*
G01*
X183680000Y-141860000D02*
G75*
G03X183680000Y-141860000I-700000J0D01*
G01*
X192530000Y-130980000D02*
X192530000Y-129650000D01*
X191200000Y-130980000D02*
X192530000Y-130980000D01*
X189930000Y-130980000D02*
X189930000Y-128320000D01*
X189930000Y-128320000D02*
X161930000Y-128320000D01*
X189930000Y-130980000D02*
X161930000Y-130980000D01*
X161930000Y-130980000D02*
X161930000Y-128320000D01*
X151770000Y-148630000D02*
X151770000Y-149960000D01*
X153100000Y-148630000D02*
X151770000Y-148630000D01*
X154370000Y-148630000D02*
X154370000Y-151290000D01*
X154370000Y-151290000D02*
X192530000Y-151290000D01*
X154370000Y-148630000D02*
X192530000Y-148630000D01*
X192530000Y-148630000D02*
X192530000Y-151290000D01*
D11*
X168032380Y-142153333D02*
X167032380Y-142153333D01*
X167032380Y-142534285D01*
X167080000Y-142629523D01*
X167127619Y-142677142D01*
X167222857Y-142724761D01*
X167365714Y-142724761D01*
X167460952Y-142677142D01*
X167508571Y-142629523D01*
X167556190Y-142534285D01*
X167556190Y-142153333D01*
X167746666Y-143105714D02*
X167746666Y-143581904D01*
X168032380Y-143010476D02*
X167032380Y-143343809D01*
X168032380Y-143677142D01*
X167032380Y-143915238D02*
X167032380Y-144534285D01*
X167413333Y-144200952D01*
X167413333Y-144343809D01*
X167460952Y-144439047D01*
X167508571Y-144486666D01*
X167603809Y-144534285D01*
X167841904Y-144534285D01*
X167937142Y-144486666D01*
X167984761Y-144439047D01*
X168032380Y-144343809D01*
X168032380Y-144058095D01*
X167984761Y-143962857D01*
X167937142Y-143915238D01*
X170182380Y-142193333D02*
X169182380Y-142193333D01*
X169182380Y-142574285D01*
X169230000Y-142669523D01*
X169277619Y-142717142D01*
X169372857Y-142764761D01*
X169515714Y-142764761D01*
X169610952Y-142717142D01*
X169658571Y-142669523D01*
X169706190Y-142574285D01*
X169706190Y-142193333D01*
X169896666Y-143145714D02*
X169896666Y-143621904D01*
X170182380Y-143050476D02*
X169182380Y-143383809D01*
X170182380Y-143717142D01*
X169515714Y-144479047D02*
X170182380Y-144479047D01*
X169134761Y-144240952D02*
X169849047Y-144002857D01*
X169849047Y-144621904D01*
X172292380Y-142153333D02*
X171292380Y-142153333D01*
X171292380Y-142534285D01*
X171340000Y-142629523D01*
X171387619Y-142677142D01*
X171482857Y-142724761D01*
X171625714Y-142724761D01*
X171720952Y-142677142D01*
X171768571Y-142629523D01*
X171816190Y-142534285D01*
X171816190Y-142153333D01*
X172006666Y-143105714D02*
X172006666Y-143581904D01*
X172292380Y-143010476D02*
X171292380Y-143343809D01*
X172292380Y-143677142D01*
X171292380Y-144486666D02*
X171292380Y-144010476D01*
X171768571Y-143962857D01*
X171720952Y-144010476D01*
X171673333Y-144105714D01*
X171673333Y-144343809D01*
X171720952Y-144439047D01*
X171768571Y-144486666D01*
X171863809Y-144534285D01*
X172101904Y-144534285D01*
X172197142Y-144486666D01*
X172244761Y-144439047D01*
X172292380Y-144343809D01*
X172292380Y-144105714D01*
X172244761Y-144010476D01*
X172197142Y-143962857D01*
X185722380Y-143083333D02*
X184722380Y-143083333D01*
X184722380Y-143464285D01*
X184770000Y-143559523D01*
X184817619Y-143607142D01*
X184912857Y-143654761D01*
X185055714Y-143654761D01*
X185150952Y-143607142D01*
X185198571Y-143559523D01*
X185246190Y-143464285D01*
X185246190Y-143083333D01*
X185198571Y-144416666D02*
X185198571Y-144083333D01*
X185722380Y-144083333D02*
X184722380Y-144083333D01*
X184722380Y-144559523D01*
X184722380Y-144845238D02*
X184722380Y-145511904D01*
X185722380Y-145083333D01*
X183512380Y-143053333D02*
X182512380Y-143053333D01*
X182512380Y-143434285D01*
X182560000Y-143529523D01*
X182607619Y-143577142D01*
X182702857Y-143624761D01*
X182845714Y-143624761D01*
X182940952Y-143577142D01*
X182988571Y-143529523D01*
X183036190Y-143434285D01*
X183036190Y-143053333D01*
X182988571Y-144386666D02*
X182988571Y-144053333D01*
X183512380Y-144053333D02*
X182512380Y-144053333D01*
X182512380Y-144529523D01*
X182512380Y-145339047D02*
X182512380Y-145148571D01*
X182560000Y-145053333D01*
X182607619Y-145005714D01*
X182750476Y-144910476D01*
X182940952Y-144862857D01*
X183321904Y-144862857D01*
X183417142Y-144910476D01*
X183464761Y-144958095D01*
X183512380Y-145053333D01*
X183512380Y-145243809D01*
X183464761Y-145339047D01*
X183417142Y-145386666D01*
X183321904Y-145434285D01*
X183083809Y-145434285D01*
X182988571Y-145386666D01*
X182940952Y-145339047D01*
X182893333Y-145243809D01*
X182893333Y-145053333D01*
X182940952Y-144958095D01*
X182988571Y-144910476D01*
X183083809Y-144862857D01*
X191533333Y-131352380D02*
X191533333Y-132066666D01*
X191580952Y-132209523D01*
X191676190Y-132304761D01*
X191819047Y-132352380D01*
X191914285Y-132352380D01*
X190628571Y-131685714D02*
X190628571Y-132352380D01*
X190866666Y-131304761D02*
X191104761Y-132019047D01*
X190485714Y-132019047D01*
X153493333Y-147172380D02*
X153493333Y-147886666D01*
X153540952Y-148029523D01*
X153636190Y-148124761D01*
X153779047Y-148172380D01*
X153874285Y-148172380D01*
X153112380Y-147172380D02*
X152493333Y-147172380D01*
X152826666Y-147553333D01*
X152683809Y-147553333D01*
X152588571Y-147600952D01*
X152540952Y-147648571D01*
X152493333Y-147743809D01*
X152493333Y-147981904D01*
X152540952Y-148077142D01*
X152588571Y-148124761D01*
X152683809Y-148172380D01*
X152969523Y-148172380D01*
X153064761Y-148124761D01*
X153112380Y-148077142D01*
M02*
