M48
; DRILL file {KiCad 5.1.2-f72e74a~84~ubuntu19.04.1} date ons  5 jun 2019 10:30:14
; FORMAT={-:-/ absolute / inch / decimal}
; #@! TF.CreationDate,2019-06-05T10:30:14+02:00
; #@! TF.GenerationSoftware,Kicad,Pcbnew,5.1.2-f72e74a~84~ubuntu19.04.1
; #@! TF.FileFunction,Plated,1,2,PTH
FMAT,2
INCH
T1C0.0118
T2C0.0197
T3C0.0236
T4C0.0295
T5C0.0335
T6C0.0394
%
G90
G05
T1
X5.9992Y-5.51
X6.0001Y-5.4814
X6.0315Y-5.3268
X6.0343Y-5.5413
X6.0659Y-5.3907
X6.1112Y-5.2126
X6.1358Y-5.6949
X6.1535Y-5.3701
X6.2156Y-5.7814
X6.2441Y-5.4606
X6.2441Y-5.5354
X6.25Y-5.6191
X6.2961Y-5.0996
X6.3583Y-5.4696
X6.4134Y-5.1969
X6.436Y-5.7814
X6.439Y-5.2945
X6.4413Y-5.3736
X6.4984Y-5.3622
X6.5008Y-5.2937
X6.5315Y-5.2567
X6.5512Y-5.7904
X6.5685Y-5.3027
X6.6161Y-5.6132
X6.6167Y-5.7342
X6.6264Y-5.3126
X6.6606Y-5.4335
X6.6626Y-5.3169
X6.7445Y-5.2299
X6.7445Y-5.2925
X6.7687Y-5.4179
X6.7851Y-5.4414
X6.7866Y-5.7259
X6.7878Y-5.5122
X6.7963Y-5.6348
X6.8052Y-5.4617
X6.8087Y-5.4925
X6.8711Y-5.6624
X6.8756Y-5.1598
X6.9224Y-5.8004
X6.9252Y-5.5512
X6.9291Y-5.4331
X6.9882Y-5.4921
X7.0128Y-5.8012
X7.0287Y-5.2791
X7.0472Y-5.4331
X7.0472Y-5.5512
X7.0756Y-5.2307
X7.0976Y-5.2969
X7.1209Y-5.2
X7.126Y-5.6378
X7.1339Y-5.6654
X7.135Y-5.2618
X7.1604Y-5.4942
X7.1614Y-5.4656
X7.1614Y-5.7441
X7.1874Y-5.1992
X7.1941Y-5.261
X7.2358Y-5.8232
X7.2413Y-5.4752
X7.248Y-5.5354
X7.2539Y-5.2
X7.2551Y-5.2626
X7.272Y-5.7071
X7.2764Y-5.1169
X7.2913Y-5.4724
X7.302Y-5.3043
X7.3063Y-5.2146
X7.3122Y-5.698
X7.3283Y-5.5606
X7.3339Y-5.3366
X7.3366Y-5.2441
X7.3504Y-5.6368
X7.3543Y-5.3858
X7.4094Y-5.1929
X7.4094Y-5.2913
X7.4094Y-5.6063
X7.4094Y-5.685
X7.4094Y-5.7638
X7.4096Y-5.3701
X7.4096Y-5.4488
X7.4096Y-5.5276
X7.4134Y-5.2402
T2
X6.1969Y-5.2047
X6.2992Y-5.2205
X6.6142Y-5.8002
X6.8268Y-5.2717
X6.8602Y-5.814
X6.9602Y-5.2748
X7.0597Y-5.7968
X7.165Y-5.8335
X7.4055Y-5.8425
T4
X6.1634Y-5.3169
X6.2421Y-5.3169
T5
X5.9414Y-5.4055
X5.9414Y-5.6024
T6
X6.4276Y-5.1043
X6.5276Y-5.1043
X6.6276Y-5.1043
X6.7276Y-5.1043
X6.8276Y-5.1043
X6.9276Y-5.1043
X7.0276Y-5.1043
X7.1276Y-5.1043
X7.2276Y-5.1043
X7.3276Y-5.1043
X7.4276Y-5.1043
X7.5276Y-5.1043
X6.0276Y-5.9039
X6.1276Y-5.9039
X6.2276Y-5.9039
X6.3276Y-5.9039
X6.4276Y-5.9039
X6.5276Y-5.9039
X6.6276Y-5.9039
X6.7276Y-5.9039
X6.8276Y-5.9039
X6.9276Y-5.9039
X7.0276Y-5.9039
X7.1276Y-5.9039
X7.2276Y-5.9039
X7.3276Y-5.9039
X7.4276Y-5.9039
X7.5276Y-5.9039
T3
G00X5.8214Y-5.3661
M15
G01X5.8489Y-5.3661
M16
G05
G00X5.8489Y-5.6417
M15
G01X5.8214Y-5.6417
M16
G05
T0
M30
